<?xml version="1.0" encoding="UTF-8" standalone="no"?>
<!-- Created with Inkscape (http://www.inkscape.org/) -->

<svg
   xmlns:dc="http://purl.org/dc/elements/1.1/"
   xmlns:cc="http://creativecommons.org/ns#"
   xmlns:rdf="http://www.w3.org/1999/02/22-rdf-syntax-ns#"
   xmlns:svg="http://www.w3.org/2000/svg"
   xmlns="http://www.w3.org/2000/svg"
   xmlns:sodipodi="http://sodipodi.sourceforge.net/DTD/sodipodi-0.dtd"
   xmlns:inkscape="http://www.inkscape.org/namespaces/inkscape"
   width="157.84488"
   height="39.542614"
   viewBox="0 0 41.763123 10.462317"
   version="1.1"
   id="svg8"
   inkscape:version="0.92.3 (2405546, 2018-03-11)"
   sodipodi:docname="acer.svg">
  <defs
     id="defs2" />
  <sodipodi:namedview
     id="base"
     pagecolor="#00ffff"
     bordercolor="#666666"
     borderopacity="1.0"
     inkscape:pageopacity="0"
     inkscape:pageshadow="2"
     inkscape:zoom="0.35"
     inkscape:cx="-54.067998"
     inkscape:cy="114.05645"
     inkscape:document-units="mm"
     inkscape:current-layer="layer1"
     showgrid="false"
     fit-margin-left="1"
     fit-margin-top="1"
     fit-margin-right="1"
     fit-margin-bottom="1"
     units="px"
     inkscape:window-width="1920"
     inkscape:window-height="1001"
     inkscape:window-x="-9"
     inkscape:window-y="-9"
     inkscape:window-maximized="1" />
  <metadata
     id="metadata5">
    <rdf:RDF>
      <cc:Work
         rdf:about="">
        <dc:format>image/svg+xml</dc:format>
        <dc:type
           rdf:resource="http://purl.org/dc/dcmitype/StillImage" />
        <dc:title></dc:title>
      </cc:Work>
    </rdf:RDF>
  </metadata>
  <g
     inkscape:label="Layer 1"
     inkscape:groupmode="layer"
     id="layer1"
     transform="translate(-120.13883,-168.54846)">
    <path
       id="path19"
       d="m 161.53975,169.25147 c -0.14612,-0.19478 -0.29215,-0.34085 -1.02255,-0.38954 -0.19476,0 -0.77907,-0.0488 -1.80162,-0.0488 -2.67807,0 -4.52839,0.82777 -5.45356,2.43463 0.24346,-1.60686 -1.31468,-2.43463 -4.72317,-2.43463 -3.99277,0 -6.52478,1.60686 -7.54733,4.86926 -0.38954,1.21729 -0.38954,2.19115 -0.0974,2.97022 h -0.97384 c -0.7304,0.0488 -1.70423,0.0974 -2.33724,0.0974 -1.46077,0 -2.38593,-0.24346 -2.72678,-0.73038 -0.29216,-0.43824 -0.29216,-1.26601 0.0974,-2.48333 0.63301,-1.99638 2.14246,-2.87285 4.57709,-2.87285 1.26601,0 2.48332,0.14612 2.48332,0.14612 v 0 c 0.14613,0 0.24346,-0.19476 0.24346,-0.34083 l -0.0488,-0.14612 -0.0973,-0.6817 c -0.0488,-0.43822 -0.38953,-0.68168 -0.97384,-0.77908 -0.53563,-0.0488 -0.97385,-0.0488 -1.55816,-0.0488 0,0 0,0 -0.0488,0 -3.16501,0 -5.40488,1.07124 -6.62217,3.11633 0.43822,-2.09378 -1.02255,-3.11633 -4.38233,-3.11633 -1.89901,0 -3.26239,0.0488 -4.04149,0.14612 -0.63298,0.0973 -1.02253,0.34085 -1.16862,0.77907 l -0.29215,0.87647 c -0.0488,0.14612 0.0488,0.24346 0.24348,0.24346 v 0 c 0.14612,0 0.73037,-0.0974 1.70423,-0.14613 1.31469,-0.0974 2.23985,-0.14612 2.87285,-0.14612 1.85032,0 2.67809,0.48694 2.38594,1.41208 -0.0488,0.19478 -0.19477,0.34085 -0.43824,0.38954 -1.75293,0.29216 -3.16501,0.48692 -4.18754,0.63301 -2.92155,0.38955 -4.62579,1.26601 -5.06403,2.72678 -0.633,1.99639 0.92516,2.97023 4.67448,2.97023 1.85032,0 3.45716,-0.0974 4.72317,-0.34083 0.73038,-0.14613 1.11993,-0.29216 1.26601,-0.77909 l 0.68169,-2.23985 c -0.0488,2.23985 1.46077,3.35977 4.67447,3.35977 1.3634,0 2.67809,-0.0488 3.3111,-0.14612 0.633,-0.0974 0.97385,-0.24346 1.11992,-0.7304 l 0.14612,-0.68168 c 0.68171,1.07123 2.19118,1.60684 4.47972,1.60684 2.43461,0 3.84671,-0.0488 4.23623,-0.19476 0.34085,-0.0974 0.53562,-0.29216 0.63301,-0.53562 0,-0.0488 0,-0.0974 0.0488,-0.14612 l 0.29215,-0.92516 c 0.0488,-0.14612 -0.0488,-0.24346 -0.24346,-0.24346 l -1.55816,0.0974 c -1.02253,0.0488 -1.8503,0.0974 -2.43461,0.0974 -1.11994,0 -1.85032,-0.0974 -2.28856,-0.24348 -0.63301,-0.24346 -0.92516,-0.68168 -0.87647,-1.41208 l 4.91794,-0.633 c 2.19115,-0.29216 3.70062,-0.97384 4.43102,-2.04509 l -1.70424,5.69703 c -0.0488,0.0974 0,0.19476 0.0488,0.24346 0.0488,0.0488 0.14613,0.0974 0.34083,0.0974 h 2.04509 c 0.34085,0 0.48693,-0.19478 0.53563,-0.34085 l 1.80161,-6.28133 c 0.24347,-0.82777 0.97385,-1.2173 2.33724,-1.2173 1.21731,0 2.09377,0 2.67808,0.0488 0,0 0.0488,0 0.0488,0 0.0974,0 0.29216,-0.0488 0.43825,-0.29216 l 0.29215,-0.87646 c 0,-0.14612 0,-0.29216 -0.0974,-0.38953 z m -32.81873,7.49864 c -0.63301,0.0974 -1.55817,0.14612 -2.72679,0.14612 -2.09376,0 -2.97022,-0.43824 -2.72676,-1.26601 0.19476,-0.58431 0.73037,-0.97385 1.60684,-1.07123 l 4.72317,-0.633 z m 21.76554,-5.06403 c -0.19478,0.63301 -1.11994,1.07125 -2.77548,1.31471 l -3.94408,0.53561 0.0974,-0.34085 c 0.34085,-1.07122 0.77909,-1.75293 1.3634,-2.14245 0.58431,-0.38955 1.55814,-0.58431 2.92155,-0.58431 1.8016,0.0488 2.58069,0.43822 2.33723,1.21729 z"
       inkscape:connector-curvature="0"
       style="fill:#83b81a;stroke-width:0.48692471" />
  </g>
</svg>
