<?xml version="1.0" encoding="UTF-8" standalone="no"?>
<svg
   xmlns:dc="http://purl.org/dc/elements/1.1/"
   xmlns:cc="http://creativecommons.org/ns#"
   xmlns:rdf="http://www.w3.org/1999/02/22-rdf-syntax-ns#"
   xmlns:svg="http://www.w3.org/2000/svg"
   xmlns="http://www.w3.org/2000/svg"
   xmlns:sodipodi="http://sodipodi.sourceforge.net/DTD/sodipodi-0.dtd"
   xmlns:inkscape="http://www.inkscape.org/namespaces/inkscape"
   viewBox="0 0 96 30.4"
   role="img"
   class="IconSVG-xex3jo-0 BlLuI"
   version="1.1"
   id="svg18"
   sodipodi:docname="Casper Sleep logo.svg"
   inkscape:version="1.0 (4035a4f, 2020-05-01)">
  <metadata
     id="metadata24">
    <rdf:RDF>
      <cc:Work
         rdf:about="">
        <dc:format>image/svg+xml</dc:format>
        <dc:type
           rdf:resource="http://purl.org/dc/dcmitype/StillImage" />
        <dc:title>Casper</dc:title>
      </cc:Work>
    </rdf:RDF>
  </metadata>
  <defs
     id="defs22" />
  <sodipodi:namedview
     inkscape:document-rotation="0"
     pagecolor="#ffffff"
     bordercolor="#666666"
     borderopacity="1"
     objecttolerance="10"
     gridtolerance="10"
     guidetolerance="10"
     inkscape:pageopacity="0"
     inkscape:pageshadow="2"
     inkscape:window-width="1404"
     inkscape:window-height="790"
     id="namedview20"
     showgrid="false"
     inkscape:zoom="11.427083"
     inkscape:cx="55.701003"
     inkscape:cy="10.911942"
     inkscape:window-x="20"
     inkscape:window-y="23"
     inkscape:window-maximized="0"
     inkscape:current-layer="svg18" />
  <title
     id="title10">Casper</title>
  <desc
     id="desc12">Casper Logo</desc>
  <path
     style="fill:#1e306e;fill-opacity:1"
     d="M30 6.4c-4.6 0-8.1 3.3-8.1 8s3.5 8 8.1 8c2.2 0 3.9-1 4.6-1.8v1.6h3.6V6.6h-3.6v1.6c-.7-.8-2.5-1.8-4.6-1.8m.1 12.7c-2.7 0-4.7-2.1-4.7-4.7s2.1-4.7 4.7-4.7 4.6 2.1 4.6 4.7-2 4.7-4.6 4.7M61 6.4c-2.1 0-3.7.8-4.7 1.8V6.6h-3.5v23.8l3.5-.4v-9.5c1 1.1 2.7 1.8 4.7 1.8 4.8 0 8-3.1 8-8 0-4.8-3.2-7.9-8-7.9m-.1 12.7c-2.8 0-4.6-2-4.6-4.7s1.8-4.7 4.6-4.7 4.7 2 4.7 4.7c-.1 2.7-1.9 4.7-4.7 4.7M96 6.4c-2.2 0-3.4.8-4.1 1.8V6.6h-3.5v15.6h3.5v-8.6c0-2.3 1.6-3.9 3.8-3.9h.3V6.4zM78.4 6.4c-4.6 0-8.2 3.6-8.2 8s3.6 8 8.2 8c3.8 0 6.9-2.1 7.9-4.9h-4.2c-.5 1-1.8 1.7-3.7 1.7-2.3 0-4.1-1.6-4.5-3.6h12.5c.1-.4.1-.8.1-1.2 0-4.4-3.6-8-8.1-8m-4.3 6.1c.5-1.6 2.2-2.9 4.3-2.9 2 0 3.8 1.3 4.3 2.9h-8.6zM45.7 9.5c-.7 0-1.5.3-1.5 1.2 0 1 1 1.3 2.9 2 2.6 1 3.9 2.2 3.9 4.6 0 2.5-2.1 5.1-5.7 5.1s-5.5-2.7-5.6-4.9h3.4c.2 1 1 1.8 2.2 1.8 1.3 0 2.1-.9 2.1-1.9 0-.7-.3-1.5-2.5-2.1-2.4-.6-4.1-1.9-4.1-4.5 0-2.4 2.1-4.3 4.8-4.3 2.4 0 3.9 1.7 4.6 2.8l-2.9 1.3c-.4-.8-1-1.1-1.6-1.1"
     id="path14" />
  <path
     style="fill:#1e306e;fill-opacity:1"
     d="M11.3 0C4.9 0 0 5 0 11.2c0 6.2 4.9 11.2 11.3 11.2 4.1 0 7.9-2.2 9.6-5.3l-3.3-1.8c-1.3 2.3-3.5 3.6-6.3 3.6-2 0-4-.8-5.3-2.2-1.4-1.5-2.2-3.4-2.2-5.4 0-2 .8-3.9 2.2-5.4 1.3-1.4 3.2-2.2 5.3-2.2 2.2 0 3.5.7 4.4 1.4 1 .7 2 1.4 3.7 1.4 3.1 0 4.5-2.5 4.8-3.8L20.7 2c0 .1-.3 1.1-1.3 1.1-.5 0-.8-.2-1.5-.7-1.3-1.2-3-2.4-6.6-2.4"
     id="path16" />
</svg>
