<svg xmlns="http://www.w3.org/2000/svg"  viewBox="0 0 64 64" width="128px" height="128px"><radialGradient id="I5JToF9QWoPV2S7qvya6La" cx="31.192" cy="31.638" r="49.916" gradientTransform="matrix(1 0 0 -1 0 66)" gradientUnits="userSpaceOnUse"><stop offset="0" stop-color="#f4e9c3"/><stop offset=".219" stop-color="#f8eecd"/><stop offset=".644" stop-color="#fdf4dc"/><stop offset="1" stop-color="#fff6e1"/></radialGradient><circle cx="60" cy="60" r="4" fill="url(#I5JToF9QWoPV2S7qvya6La)"/><radialGradient id="I5JToF9QWoPV2S7qvya6Lb" cx="31.191" cy="31.638" r="49.919" gradientTransform="matrix(1 0 0 -1 0 66)" gradientUnits="userSpaceOnUse"><stop offset="0" stop-color="#f4e9c3"/><stop offset=".219" stop-color="#f8eecd"/><stop offset=".644" stop-color="#fdf4dc"/><stop offset="1" stop-color="#fff6e1"/></radialGradient><path fill="url(#I5JToF9QWoPV2S7qvya6Lb)" d="M58.26,35H57c-1.1,0-2.1-0.45-2.83-1.17c-0.678-0.687-1.117-1.614-1.165-2.638	C52.895,28.889,54.92,27,57.226,27H59c1.38,0,2.63-0.56,3.54-1.46c0.86-0.87,1.41-2.05,1.46-3.36c0.1-2.85-2.39-5.18-5.24-5.18H38	c-1.38,0-2.63-0.56-3.54-1.46c-0.86-0.87-1.41-2.051-1.457-3.358C32.901,9.334,35.391,7,38.241,7H46.5C48.433,7,50,5.433,50,3.5	V3.48C49.99,1.56,48.43,0,46.5,0h-37C7.567,0,6,1.567,6,3.5v0.11C6,5.48,7.52,7,9.43,7H10c1.66,0,3.16,0.67,4.24,1.76	c1.056,1.046,1.718,2.487,1.758,4.085C16.084,16.229,13.133,19,9.748,19H5c-2.92,0-5.26,2.51-4.98,5.49C0.27,27.09,2.61,29,5.22,29	H5.5c0.17,0,0.34,0.01,0.5,0.03V29h1.5c1.24,0,2.37,0.5,3.18,1.32c0.791,0.782,1.285,1.862,1.318,3.051	C12.07,35.916,9.832,38,7.286,38H6v-0.03C5.84,37.99,5.67,38,5.5,38H4c-1.1,0-2.1,0.45-2.83,1.17	c-0.664,0.674-1.099,1.566-1.166,2.567C-0.152,44.076,1.885,46,4.23,46h9.27c3.038,0,5.5,2.462,5.5,5.5l0,0	c0,3.038-2.462,5.5-5.5,5.5h-9c-0.96,0-1.84,0.39-2.47,1.03c-0.59,0.58-0.97,1.37-1.02,2.24c-0.001,0.004-0.001,0.009-0.002,0.013	C0.782,62.28,2.432,64,4.441,64H5h42h2.5c0.96,0,1.84-0.39,2.47-1.03C52.61,62.34,53,61.46,53,60.5c0-1.88-1.49-3.42-3.35-3.49	L49.64,57H49.5h-3c-3.038,0-5.5-2.462-5.5-5.5l0,0c0-3.038,2.462-5.5,5.5-5.5h12c1.52,0,2.9-0.62,3.89-1.61	c0.96-0.96,1.57-2.29,1.61-3.76C64.07,37.53,61.35,35,58.26,35z"/><linearGradient id="I5JToF9QWoPV2S7qvya6Lc" x1="42.5" x2="42.5" y1="55.894" y2="6.615" gradientTransform="matrix(1 0 0 -1 0 66)" gradientUnits="userSpaceOnUse"><stop offset="0" stop-color="#c6effd"/><stop offset=".375" stop-color="#b7ecfd"/><stop offset="1" stop-color="#95e6fd"/></linearGradient><path fill="url(#I5JToF9QWoPV2S7qvya6Lc)" d="M58,14v36c0,2.21-1.79,4-4,4H37.62C34.37,42.98,38,35,38,35H27c0.57-10.24,5.02-19.19,8.76-25	H54C56.21,10,58,11.79,58,14z"/><linearGradient id="I5JToF9QWoPV2S7qvya6Ld" x1="22" x2="22" y1="-52.021" y2="53.871" gradientTransform="matrix(1 0 0 -1 0 66)" gradientUnits="userSpaceOnUse"><stop offset="0" stop-color="#155cde"/><stop offset=".278" stop-color="#1f7fe5"/><stop offset=".569" stop-color="#279ceb"/><stop offset=".82" stop-color="#2cafef"/><stop offset="1" stop-color="#2eb5f0"/></linearGradient><path fill="url(#I5JToF9QWoPV2S7qvya6Ld)" d="M37.62,54H10c-2.21,0-4-1.79-4-4V14c0-2.21,1.79-4,4-4h25.76c-3.74,5.81-8.19,14.76-8.76,25	h11C38,35,34.37,42.98,37.62,54z"/><linearGradient id="I5JToF9QWoPV2S7qvya6Le" x1="32" x2="32" y1="55.553" y2="9.109" gradientTransform="matrix(1 0 0 -1 0 66)" gradientUnits="userSpaceOnUse"><stop offset="0" stop-color="#a4a4a4"/><stop offset=".63" stop-color="#7f7f7f"/><stop offset="1" stop-color="#6f6f6f"/></linearGradient><path fill="url(#I5JToF9QWoPV2S7qvya6Le)" d="M51.752,40.036c-0.532-0.968-1.747-1.321-2.716-0.788c-3.775,2.076-7.639,3.357-11.73,3.85	c0.255-4.332,1.419-7.06,1.514-7.268c0.28-0.62,0.23-1.34-0.14-1.91S37.68,33,37,33h-8.83c1.07-9.54,5.53-17.83,9-23h-4.8	c-3.71,6.01-7.81,14.8-8.37,24.89c-0.03,0.55,0.17,1.09,0.55,1.48C24.92,36.77,25.45,37,26,37h8.23	c-0.412,1.562-0.823,3.722-0.94,6.331c-5.601-0.021-11.675-1.415-18.542-4.185c-1.024-0.415-2.189,0.082-2.603,1.106	s0.082,2.189,1.106,2.603c7.311,2.95,13.939,4.43,20.099,4.443c0.157,2.066,0.52,4.314,1.189,6.703h4.17	c-0.789-2.495-1.194-4.818-1.362-6.92c4.77-0.507,9.275-1.94,13.615-4.328C51.932,42.22,52.285,41.004,51.752,40.036z"/><linearGradient id="I5JToF9QWoPV2S7qvya6Lf" x1="19" x2="19" y1="55.553" y2="9.109" gradientTransform="matrix(1 0 0 -1 0 66)" gradientUnits="userSpaceOnUse"><stop offset="0" stop-color="#a4a4a4"/><stop offset=".63" stop-color="#7f7f7f"/><stop offset="1" stop-color="#6f6f6f"/></linearGradient><path fill="url(#I5JToF9QWoPV2S7qvya6Lf)" d="M19,25c1.104,0,2-0.896,2-2v-4c0-1.104-0.896-2-2-2s-2,0.896-2,2v4C17,24.104,17.896,25,19,25	z"/><linearGradient id="I5JToF9QWoPV2S7qvya6Lg" x1="43" x2="43" y1="55.553" y2="9.109" gradientTransform="matrix(1 0 0 -1 0 66)" gradientUnits="userSpaceOnUse"><stop offset="0" stop-color="#a4a4a4"/><stop offset=".63" stop-color="#7f7f7f"/><stop offset="1" stop-color="#6f6f6f"/></linearGradient><path fill="url(#I5JToF9QWoPV2S7qvya6Lg)" d="M43,25c1.104,0,2-0.896,2-2v-4c0-1.104-0.896-2-2-2s-2,0.896-2,2v4C41,24.104,41.896,25,43,25	z"/></svg>