<?xml version="1.0" encoding="UTF-8"?>
<svg xmlns="http://www.w3.org/2000/svg" xmlns:xlink="http://www.w3.org/1999/xlink" width="553.6pt" height="667.6pt" viewBox="0 0 553.6 667.6" version="1.1">
<g id="surface1">
<path style=" stroke:none;fill-rule:evenodd;fill:rgb(99.21875%,95.3125%,77.734375%);fill-opacity:1;" d="M 96.402344 71.109375 L 96.402344 124.824219 C 96.402344 126.703125 96.738281 126.746094 97.101563 128.3125 C 98.667969 128.675781 98.707031 129.011719 100.59375 129.011719 L 102.6875 129.011719 C 104.320313 129.011719 105.480469 127.851563 105.480469 126.21875 L 105.480469 71.109375 C 105.480469 69.480469 103.617188 67.621094 101.988281 67.621094 L 99.894531 67.621094 C 98.265625 67.621094 96.402344 69.480469 96.402344 71.109375 Z M 96.402344 71.109375 "/>
<path style=" stroke:none;fill-rule:evenodd;fill:rgb(10.594177%,9.812927%,9.423828%);fill-opacity:1;" d="M 212.992188 68.320313 L 212.992188 177.839844 C 212.992188 181.777344 217.230469 186.214844 221.371094 186.214844 L 229.050781 186.214844 C 239.179688 186.214844 236.730469 171.222656 236.730469 161.097656 C 236.730469 150.171875 236.730469 139.242188 236.730469 128.3125 C 236.730469 117.382813 236.730469 106.453125 236.730469 95.523438 C 236.730469 87.621094 233.632813 67.621094 241.617188 67.621094 L 243.011719 67.621094 C 244.984375 67.621094 245.707031 69.222656 246.503906 70.410156 C 246.503906 80.410156 246.503906 90.410156 246.503906 100.410156 C 246.503906 111.835938 245.660156 119.941406 257.671875 119.941406 L 260.464844 119.941406 C 265.699219 119.941406 270.238281 116.539063 270.238281 111.570313 L 270.238281 68.320313 C 270.238281 54.664063 261.191406 43.902344 247.898438 43.902344 L 234.632813 43.902344 C 222.621094 43.902344 212.992188 55.730469 212.992188 68.320313 Z M 212.992188 68.320313 "/>
<path style=" stroke:none;fill-rule:evenodd;fill:rgb(10.594177%,9.812927%,9.423828%);fill-opacity:1;" d="M 424.527344 63.433594 L 424.527344 131.800781 C 424.527344 139.40625 429.722656 146.050781 434.425781 149.117188 C 443.695313 155.164063 446.242188 151.703125 456.640625 154.121094 C 457.003906 155.6875 457.339844 155.726563 457.339844 157.613281 L 457.339844 158.308594 C 457.339844 160.191406 457.003906 160.230469 456.640625 161.796875 C 446.011719 164.269531 424.527344 157.902344 424.527344 170.867188 L 424.527344 178.539063 C 424.527344 182.085938 428.65625 186.214844 432.207031 186.214844 L 458.734375 186.214844 C 472.390625 186.214844 481.773438 174.828125 481.773438 161.097656 L 481.773438 154.820313 C 481.773438 135.878906 469.84375 129.011719 450.355469 129.011719 C 449.34375 127.496094 448.261719 126.6875 448.261719 124.121094 L 448.261719 71.109375 C 448.261719 69.480469 450.125 67.621094 451.753906 67.621094 L 453.847656 67.621094 C 455.820313 67.621094 456.542969 69.222656 457.339844 70.410156 C 457.339844 84.714844 452.28125 119.941406 466.414063 119.941406 L 471.300781 119.941406 C 477.515625 119.941406 481.773438 115.6875 481.773438 109.476563 L 481.773438 69.714844 C 481.773438 56.378906 472.917969 43.902344 460.132813 43.902344 L 444.074219 43.902344 C 436.152344 43.902344 424.527344 55.519531 424.527344 63.433594 Z M 424.527344 63.433594 "/>
<path style=" stroke:none;fill-rule:evenodd;fill:rgb(10.594177%,9.812927%,9.423828%);fill-opacity:1;" d="M 142.480469 69.015625 L 142.480469 109.476563 C 142.480469 115.6875 146.738281 119.941406 152.953125 119.941406 L 157.839844 119.941406 C 176.507813 119.941406 160.207031 67.621094 169.707031 67.621094 L 172.5 67.621094 C 174.128906 67.621094 175.992188 69.480469 175.992188 71.109375 L 175.992188 124.824219 C 175.992188 132.660156 162.921875 127.972656 154.898438 132.351563 C 149.925781 135.0625 143.179688 142.570313 143.179688 149.9375 L 143.179688 167.378906 C 143.179688 175.570313 154.613281 186.214844 164.121094 186.214844 L 180.179688 186.214844 C 188.632813 186.214844 199.726563 174.789063 199.726563 165.285156 L 199.726563 65.527344 C 199.726563 55.496094 189.015625 43.902344 180.179688 43.902344 L 162.726563 43.902344 C 152.179688 43.902344 142.480469 56.9375 142.480469 69.015625 Z M 142.480469 69.015625 "/>
<path style=" stroke:none;fill-rule:evenodd;fill:rgb(99.21875%,95.3125%,77.734375%);fill-opacity:1;" d="M 307.238281 72.503906 L 307.238281 157.613281 C 307.238281 159.960938 308.472656 162.496094 310.730469 162.496094 L 312.125 162.496094 C 315.386719 162.496094 317.015625 160.867188 317.015625 157.613281 L 317.015625 72.503906 C 317.015625 70.152344 315.78125 67.621094 313.523438 67.621094 L 310.730469 67.621094 C 308.472656 67.621094 307.238281 70.152344 307.238281 72.503906 Z M 307.238281 72.503906 "/>
<path style=" stroke:none;fill-rule:evenodd;fill:rgb(10.594177%,9.812927%,9.423828%);fill-opacity:1;" d="M 354.015625 52.273438 L 354.015625 164.585938 C 354.015625 175.445313 364.789063 186.214844 375.65625 186.214844 L 388.921875 186.214844 C 401.355469 186.214844 411.261719 175.121094 411.261719 162.496094 L 411.261719 55.0625 C 411.261719 49.179688 408.492188 43.902344 402.882813 43.902344 L 395.203125 43.902344 C 385.074219 43.902344 387.527344 58.894531 387.527344 69.015625 C 387.527344 79.945313 387.527344 90.871094 387.527344 101.804688 C 387.527344 112.734375 387.527344 123.660156 387.527344 134.589844 C 387.527344 142.488281 390.621094 162.496094 382.636719 162.496094 C 374.65625 162.496094 377.75 142.488281 377.75 134.589844 C 377.75 123.660156 377.75 112.734375 377.75 101.804688 C 377.75 90.871094 377.75 79.945313 377.75 69.015625 C 377.75 58.304688 380.085938 43.902344 369.375 43.902344 L 362.394531 43.902344 C 358.199219 43.902344 354.015625 48.078125 354.015625 52.273438 Z M 354.015625 52.273438 "/>
<path style=" stroke:none;fill-rule:evenodd;fill:rgb(10.594177%,9.812927%,9.423828%);fill-opacity:1;" d="M 96.402344 71.109375 C 96.402344 69.480469 98.265625 67.621094 99.894531 67.621094 L 101.988281 67.621094 C 103.617188 67.621094 105.480469 69.480469 105.480469 71.109375 L 105.480469 126.21875 C 105.480469 127.851563 104.320313 129.011719 102.6875 129.011719 L 100.59375 129.011719 C 98.707031 129.011719 98.667969 128.675781 97.101563 128.3125 C 96.738281 126.746094 96.402344 126.703125 96.402344 124.824219 Z M 72.667969 63.433594 L 72.667969 178.539063 C 72.667969 182.085938 76.796875 186.214844 80.347656 186.214844 L 88.027344 186.214844 C 99.433594 186.214844 96.402344 167.566406 96.25 156.0625 L 99.195313 153.425781 C 118.414063 153.425781 129.914063 146.324219 129.914063 127.613281 L 129.914063 69.015625 C 129.914063 56.1875 120.589844 43.902344 108.273438 43.902344 L 95.007813 43.902344 C 84.46875 43.902344 72.667969 54.210938 72.667969 63.433594 Z M 72.667969 63.433594 "/>
<path style=" stroke:none;fill-rule:evenodd;fill:rgb(10.594177%,9.812927%,9.423828%);fill-opacity:1;" d="M 307.238281 72.503906 C 307.238281 70.152344 308.472656 67.621094 310.730469 67.621094 L 313.523438 67.621094 C 315.78125 67.621094 317.015625 70.152344 317.015625 72.503906 L 317.015625 157.613281 C 317.015625 160.867188 315.386719 162.496094 312.125 162.496094 L 310.730469 162.496094 C 308.472656 162.496094 307.238281 159.960938 307.238281 157.613281 Z M 283.503906 53.664063 L 283.503906 176.445313 C 283.503906 181.679688 286.90625 186.214844 291.882813 186.214844 L 320.503906 186.214844 C 330.988281 186.214844 340.75 174.328125 340.75 163.191406 L 340.75 67.621094 C 340.75 55.164063 331.238281 43.902344 319.109375 43.902344 L 291.882813 43.902344 C 286.90625 43.902344 283.503906 48.4375 283.503906 53.664063 Z M 283.503906 53.664063 "/>
<path style=" stroke:none;fill-rule:evenodd;fill:rgb(98.046875%,94.53125%,83.984375%);fill-opacity:1;" d="M 283.503906 53.664063 C 283.503906 48.4375 286.90625 43.902344 291.882813 43.902344 L 319.109375 43.902344 C 331.238281 43.902344 340.75 55.164063 340.75 67.621094 L 340.75 163.191406 C 340.75 174.328125 330.988281 186.214844 320.503906 186.214844 L 291.882813 186.214844 C 286.90625 186.214844 283.503906 181.679688 283.503906 176.445313 Z M 354.015625 52.273438 C 354.015625 48.078125 358.199219 43.902344 362.394531 43.902344 L 369.375 43.902344 C 380.085938 43.902344 377.75 58.304688 377.75 69.015625 C 377.75 79.945313 377.75 90.871094 377.75 101.804688 C 377.75 112.734375 377.75 123.660156 377.75 134.589844 C 377.75 142.488281 374.65625 162.496094 382.636719 162.496094 C 390.621094 162.496094 387.527344 142.488281 387.527344 134.589844 C 387.527344 123.660156 387.527344 112.734375 387.527344 101.804688 C 387.527344 90.871094 387.527344 79.945313 387.527344 69.015625 C 387.527344 58.894531 385.074219 43.902344 395.203125 43.902344 L 402.882813 43.902344 C 408.492188 43.902344 411.261719 49.179688 411.261719 55.0625 L 411.261719 162.496094 C 411.261719 175.121094 401.355469 186.214844 388.921875 186.214844 L 375.65625 186.214844 C 364.789063 186.214844 354.015625 175.445313 354.015625 164.585938 Z M 72.667969 63.433594 C 72.667969 54.210938 84.46875 43.902344 95.007813 43.902344 L 108.273438 43.902344 C 120.589844 43.902344 129.914063 56.1875 129.914063 69.015625 L 129.914063 127.613281 C 129.914063 146.324219 118.414063 153.425781 99.195313 153.425781 L 96.25 156.0625 C 96.402344 167.566406 99.433594 186.214844 88.027344 186.214844 L 80.347656 186.214844 C 76.796875 186.214844 72.667969 182.085938 72.667969 178.539063 Z M 424.527344 63.433594 C 424.527344 55.519531 436.152344 43.902344 444.074219 43.902344 L 460.132813 43.902344 C 472.917969 43.902344 481.773438 56.378906 481.773438 69.714844 L 481.773438 109.476563 C 481.773438 115.6875 477.515625 119.941406 471.300781 119.941406 L 466.414063 119.941406 C 452.28125 119.941406 457.339844 84.714844 457.339844 70.410156 C 456.542969 69.222656 455.820313 67.621094 453.847656 67.621094 L 451.753906 67.621094 C 450.125 67.621094 448.261719 69.480469 448.261719 71.109375 L 448.261719 124.121094 C 448.261719 126.6875 449.34375 127.496094 450.355469 129.011719 C 469.84375 129.011719 481.773438 135.878906 481.773438 154.820313 L 481.773438 161.097656 C 481.773438 174.828125 472.390625 186.214844 458.734375 186.214844 L 432.207031 186.214844 C 428.65625 186.214844 424.527344 182.085938 424.527344 178.539063 L 424.527344 170.867188 C 424.527344 157.902344 446.011719 164.269531 456.640625 161.796875 C 457.003906 160.230469 457.339844 160.191406 457.339844 158.308594 L 457.339844 157.613281 C 457.339844 155.726563 457.003906 155.6875 456.640625 154.121094 C 446.242188 151.703125 443.695313 155.164063 434.425781 149.117188 C 429.722656 146.050781 424.527344 139.40625 424.527344 131.800781 Z M 212.992188 68.320313 C 212.992188 55.730469 222.621094 43.902344 234.632813 43.902344 L 247.898438 43.902344 C 261.191406 43.902344 270.238281 54.664063 270.238281 68.320313 L 270.238281 111.570313 C 270.238281 116.539063 265.699219 119.941406 260.464844 119.941406 L 257.671875 119.941406 C 245.660156 119.941406 246.503906 111.835938 246.503906 100.410156 C 246.503906 90.410156 246.503906 80.410156 246.503906 70.410156 C 245.707031 69.222656 244.984375 67.621094 243.011719 67.621094 L 241.617188 67.621094 C 233.632813 67.621094 236.730469 87.621094 236.730469 95.523438 C 236.730469 106.453125 236.730469 117.382813 236.730469 128.3125 C 236.730469 139.242188 236.730469 150.171875 236.730469 161.097656 C 236.730469 171.222656 239.179688 186.214844 229.050781 186.214844 L 221.371094 186.214844 C 217.230469 186.214844 212.992188 181.777344 212.992188 177.839844 Z M 142.480469 69.015625 C 142.480469 56.9375 152.179688 43.902344 162.726563 43.902344 L 180.179688 43.902344 C 189.015625 43.902344 199.726563 55.496094 199.726563 65.527344 L 199.726563 165.285156 C 199.726563 174.789063 188.632813 186.214844 180.179688 186.214844 L 164.121094 186.214844 C 154.613281 186.214844 143.179688 175.570313 143.179688 167.378906 L 143.179688 149.9375 C 143.179688 142.570313 149.925781 135.0625 154.898438 132.351563 C 162.921875 127.972656 175.992188 132.660156 175.992188 124.824219 L 175.992188 71.109375 C 175.992188 69.480469 174.128906 67.621094 172.5 67.621094 L 169.707031 67.621094 C 160.207031 67.621094 176.507813 119.941406 157.839844 119.941406 L 152.953125 119.941406 C 146.738281 119.941406 142.480469 115.6875 142.480469 109.476563 Z M 50.328125 372.472656 C 50.328125 363.121094 51.554688 352.992188 51.695313 343.144531 C 51.785156 336.949219 52.324219 319.355469 53.398438 313.453125 C 54.558594 307.078125 55.050781 291.28125 55.210938 284.570313 C 55.382813 277.328125 59.949219 265.570313 62.101563 260.0625 C 67.21875 246.96875 79.023438 233.269531 89.539063 225.394531 C 98.714844 218.519531 118.671875 207.839844 134.101563 207.839844 L 418.941406 207.839844 C 435.484375 207.839844 452.414063 217.273438 462.636719 224.171875 C 474.742188 232.339844 483.378906 243.484375 490.140625 256.679688 C 497.011719 270.089844 500.070313 286.6875 499.925781 306.894531 C 499.804688 324.191406 503.414063 346.34375 503.414063 364.101563 L 503.414063 371.773438 C 513.414063 369.105469 534.132813 332.253906 534.132813 316.664063 C 534.132813 300.828125 533.167969 285.179688 532.042969 269.914063 C 530.988281 255.570313 528.46875 239.769531 528.550781 224.578125 C 528.601563 215.445313 526.933594 187.746094 525.335938 178.953125 C 522.917969 165.660156 523.925781 146.503906 522.242188 132.519531 C 518.078125 97.84375 523.800781 73.691406 505.640625 50.746094 C 492.84375 34.578125 467.351563 19.488281 438.488281 19.488281 L 111.066406 19.488281 C 95.828125 19.488281 75.980469 28.070313 66.507813 34.261719 C 53.371094 42.847656 46.417969 51.992188 39.148438 66.21875 C 34.539063 75.242188 33.109375 104.835938 32.902344 119.269531 C 32.789063 127.015625 30.691406 137.828125 30.773438 146.445313 C 30.816406 150.769531 29.890625 170.453125 29.105469 174.773438 C 27.597656 183.054688 27.953125 193.398438 27.292969 202.261719 C 26.632813 211.183594 25.144531 219.765625 25.199219 230.164063 C 25.234375 237.601563 23.652344 249.460938 23.09375 257.363281 C 22.425781 266.820313 21.667969 276.351563 21 285.265625 C 19.398438 306.65625 18.730469 320.964844 25.285156 337.496094 C 29.308594 347.644531 42.132813 366.988281 50.328125 372.472656 Z M 50.328125 372.472656 "/>
<path style=" stroke:none;fill-rule:evenodd;fill:rgb(0.784302%,0.784302%,0.784302%);fill-opacity:1;" d="M 192.046875 321.546875 L 192.046875 327.128906 C 192.046875 332.816406 198.105469 339.683594 204.613281 339.683594 L 206.011719 339.683594 C 211.402344 339.683594 216.484375 332.074219 216.484375 326.429688 L 216.484375 321.546875 C 216.484375 315.902344 211.171875 308.992188 206.011719 308.992188 L 202.519531 308.992188 C 197.675781 308.992188 192.046875 316.820313 192.046875 321.546875 Z M 192.046875 321.546875 "/>
<path style=" stroke:none;fill-rule:evenodd;fill:rgb(0.784302%,0.784302%,0.784302%);fill-opacity:1;" d="M 233.9375 321.546875 L 233.9375 324.335938 C 233.9375 327.234375 235.898438 330.617188 238.824219 330.617188 C 242.875 330.617188 247.898438 321.433594 247.898438 316.664063 L 247.898438 310.386719 C 247.898438 308.757813 246.035156 306.898438 244.40625 306.898438 L 243.710938 306.898438 C 238.597656 306.898438 233.9375 317.203125 233.9375 321.546875 Z M 233.9375 321.546875 "/>
<path style=" stroke:none;fill-rule:evenodd;fill:rgb(99.21875%,95.3125%,77.734375%);fill-opacity:1;" d="M 380.976563 301.441406 C 382.382813 306.914063 390.597656 319.964844 393.347656 325.496094 C 395.824219 330.492188 402.566406 346.660156 408.46875 346.660156 L 409.167969 346.660156 C 418.359375 346.660156 429.359375 337.566406 434.140625 332.550781 C 436.054688 330.546875 449.660156 310.699219 449.660156 308.992188 C 449.660156 304.355469 431.167969 283.664063 427.320313 281.085938 L 426.953125 280.289063 Z M 380.976563 301.441406 "/>
<path style=" stroke:none;fill-rule:evenodd;fill:rgb(99.21875%,95.3125%,77.734375%);fill-opacity:1;" d="M 104.082031 308.289063 L 104.082031 308.992188 C 104.082031 310.695313 117.332031 329.578125 119.265625 331.488281 C 123.558594 335.730469 135.113281 346.660156 142.480469 346.660156 L 146.667969 346.660156 C 150.929688 346.660156 158.253906 329.164063 160.773438 325.175781 C 162.648438 322.203125 172.625 303.785156 173.199219 301.316406 C 168.523438 300.226563 156.148438 293.070313 150.386719 290.628906 C 142.296875 287.199219 134.625 283.15625 125.726563 281.085938 C 122.867188 282.996094 104.082031 305.679688 104.082031 308.289063 Z M 104.082031 308.289063 "/>
<path style=" stroke:none;fill-rule:evenodd;fill:rgb(0.784302%,0.784302%,0.784302%);fill-opacity:1;" d="M 179.480469 353.636719 C 179.480469 358.546875 183.210938 364.101563 187.859375 364.101563 L 192.746094 364.101563 C 195.59375 364.101563 199.726563 359.265625 199.726563 355.730469 L 199.726563 352.242188 C 199.726563 348.105469 195.289063 343.871094 191.351563 343.871094 L 188.558594 343.871094 C 183.890625 343.871094 179.480469 348.828125 179.480469 353.636719 Z M 179.480469 353.636719 "/>
<path style=" stroke:none;fill-rule:evenodd;fill:rgb(0.784302%,0.784302%,0.784302%);fill-opacity:1;" d="M 217.179688 357.121094 C 217.179688 360.574219 220.011719 363.402344 223.464844 363.402344 L 226.257813 363.402344 C 228.542969 363.402344 231.144531 360.78125 231.144531 357.824219 L 231.144531 355.730469 C 231.144531 353.507813 227.585938 350.847656 224.859375 350.847656 L 222.765625 350.847656 C 220.417969 350.847656 217.179688 353.972656 217.179688 357.121094 Z M 217.179688 357.121094 "/>
<path style=" stroke:none;fill-rule:evenodd;fill:rgb(0.784302%,0.784302%,0.784302%);fill-opacity:1;" d="M 307.9375 460.371094 L 311.429688 460.371094 C 313.652344 460.371094 316.316406 456.816406 316.316406 454.089844 L 316.316406 446.414063 C 316.316406 441.699219 309.335938 426.601563 309.335938 420.605469 L 309.335938 419.910156 C 309.335938 414.992188 316.464844 408.746094 322.597656 408.746094 L 326.089844 408.746094 C 326.386719 412.300781 329.3125 415.027344 333.070313 415.027344 C 338.773438 415.027344 341.449219 411.660156 341.449219 405.964844 L 380.542969 400.371094 C 377.664063 396.445313 311.914063 397.585938 300.957031 397.585938 C 297.082031 403.367188 299.421875 422.570313 301.105469 430.226563 C 301.960938 434.121094 304.019531 440.210938 304.996094 444.472656 C 305.953125 448.640625 304.714844 460.371094 307.9375 460.371094 Z M 307.9375 460.371094 "/>
<path style=" stroke:none;fill-rule:evenodd;fill:rgb(0.784302%,0.784302%,0.784302%);fill-opacity:1;" d="M 173.199219 400.371094 L 212.992188 405.953125 L 212.992188 409.445313 C 212.992188 412.148438 216.828125 415.027344 219.972656 415.027344 L 221.371094 415.027344 C 225.136719 415.027344 227.355469 412.304688 227.652344 408.746094 L 232.539063 408.746094 C 237.929688 408.746094 244.40625 415.144531 244.40625 421.304688 C 244.40625 428.460938 237.425781 440.621094 237.425781 449.203125 L 237.425781 451.996094 C 237.425781 456.382813 239.28125 460.371094 243.710938 460.371094 L 247.898438 460.371094 L 247.898438 450.601563 C 247.898438 446.578125 251.320313 434.84375 252.503906 430.09375 C 254.394531 422.519531 254.878906 415.882813 254.878906 406.65625 L 254.878906 402.46875 C 254.878906 399.90625 253.796875 399.097656 252.785156 397.585938 C 241.953125 397.585938 175.972656 396.589844 173.199219 400.371094 Z M 173.199219 400.371094 "/>
<path style=" stroke:none;fill-rule:evenodd;fill:rgb(0.784302%,0.784302%,0.784302%);fill-opacity:1;" d="M 386.128906 449.203125 L 386.128906 453.394531 C 386.128906 456.898438 387.726563 462.460938 390.316406 462.460938 C 395.84375 462.460938 398.695313 454.269531 398.695313 448.511719 L 398.695313 445.71875 C 398.695313 442.683594 397.359375 438.046875 394.507813 438.046875 L 393.109375 438.046875 C 389.539063 438.046875 386.128906 445.769531 386.128906 449.203125 Z M 386.128906 449.203125 "/>
<path style=" stroke:none;fill-rule:evenodd;fill:rgb(0.784302%,0.784302%,0.784302%);fill-opacity:1;" d="M 366.582031 467.347656 C 366.582031 470.652344 369.988281 474.320313 373.5625 474.320313 L 376.355469 474.320313 C 378.035156 474.320313 380.542969 471.816406 380.542969 470.136719 L 380.542969 468.039063 C 380.542969 464.28125 377.089844 461.765625 373.5625 461.765625 L 370.769531 461.765625 C 368.441406 461.765625 366.582031 465.175781 366.582031 467.347656 Z M 366.582031 467.347656 "/>
<path style=" stroke:none;fill-rule:evenodd;fill:rgb(0.784302%,0.784302%,0.784302%);fill-opacity:1;" d="M 382.636719 479.902344 C 382.636719 485.085938 386.75 490.367188 391.714844 490.367188 L 394.507813 490.367188 C 398.910156 490.367188 403.582031 484.949219 403.582031 480.601563 L 403.582031 479.902344 C 403.582031 475.199219 398.558594 469.4375 393.808594 469.4375 L 392.414063 469.4375 C 387.621094 469.4375 382.636719 474.996094 382.636719 479.902344 Z M 382.636719 479.902344 "/>
<path style=" stroke:none;fill-rule:evenodd;fill:rgb(0.784302%,0.784302%,0.784302%);fill-opacity:1;" d="M 253.484375 571.984375 L 275.824219 550.359375 C 280.757813 550.769531 296.144531 570.003906 300.957031 571.289063 C 299.65625 576.148438 292.375 578.265625 286.296875 578.265625 L 263.957031 578.265625 C 258.652344 578.265625 255.609375 575.15625 253.484375 571.984375 Z M 136.199219 418.511719 C 136.199219 406.234375 151.636719 382.277344 156.917969 372.246094 C 164.75 357.371094 172.703125 343.214844 180.167969 328.511719 C 181.820313 325.265625 190.890625 309.472656 192.996094 307.847656 C 201.117188 301.578125 208.792969 303.214844 218.371094 299.714844 C 224.246094 297.570313 268.003906 288.0625 274.429688 288.0625 L 280.011719 288.0625 C 289.140625 288.0625 325.171875 296.59375 334.492188 299.199219 C 363.726563 307.378906 358.332031 302.585938 372.886719 327.105469 C 378.777344 337.03125 417.546875 407.617188 417.546875 415.027344 L 417.546875 420.605469 C 417.546875 432.085938 414.242188 440.289063 413.335938 450.578125 C 412.488281 460.210938 409.699219 469.746094 408.402344 479.835938 C 407.925781 483.523438 406.484375 489.316406 405.53125 493.703125 C 404.320313 499.289063 401.523438 499.910156 396.324219 501.949219 C 388.835938 504.871094 377.90625 507.808594 367.976563 507.808594 C 367.394531 507.808594 363.527344 497.273438 362.996094 496.039063 C 361.640625 492.890625 358.71875 487.617188 356.808594 484.785156 C 354.210938 480.921875 345.019531 466.480469 342.148438 464.554688 C 344.035156 472.652344 344.660156 480.976563 346.589844 489.414063 C 349.214844 500.871094 348.867188 504.65625 344.242188 513.386719 C 334.742188 511.175781 317.332031 502.226563 306.542969 502.226563 C 304.933594 502.226563 304.449219 502.710938 304.449219 504.320313 L 304.449219 505.015625 C 304.449219 507.691406 318.644531 511.121094 321.691406 512.199219 C 328.199219 514.496094 334.242188 516.183594 340.082031 518.992188 L 334.46875 525.945313 C 328.613281 522.847656 315.773438 516.871094 307.238281 516.871094 L 305.84375 516.871094 C 304.234375 516.871094 303.75 517.359375 303.75 518.96875 C 303.75 522.0625 313.730469 522.652344 317.253906 524.308594 C 319.890625 525.550781 328.953125 529.660156 330.976563 530.128906 C 330.800781 532.261719 324.796875 540.59375 323.996094 540.59375 C 322.769531 540.59375 308.988281 531.523438 303.050781 531.523438 C 301.441406 531.523438 300.957031 532.011719 300.957031 533.617188 L 300.957031 535.710938 C 305.617188 536.097656 318.535156 543.234375 320.464844 546.144531 L 309.335938 562.21875 C 306.578125 561.484375 281.410156 544.234375 281.410156 541.988281 L 281.410156 515.480469 C 281.410156 511.992188 310.730469 484.703125 310.730469 479.203125 L 310.730469 477.113281 C 310.730469 474.890625 307.171875 472.230469 304.449219 472.230469 L 249.296875 472.230469 C 245.84375 472.230469 243.011719 475.058594 243.011719 478.507813 C 243.011719 484.863281 272.332031 511.476563 272.332031 515.480469 L 272.332031 541.988281 C 272.332031 545.023438 248.820313 559.734375 245.140625 562.195313 L 233.238281 545.476563 C 234.84375 544.402344 253.484375 534.316406 253.484375 534.316406 C 253.484375 532.449219 252.476563 532.253906 251.390625 531.523438 C 242.023438 533.703125 236.621094 536.691406 229.890625 541.1875 L 222.765625 530.828125 C 231.542969 524.953125 238.296875 523.785156 249.992188 521.0625 L 249.992188 518.96875 C 249.992188 517.828125 249.574219 516.871094 248.597656 516.871094 C 236.515625 516.871094 221.054688 525.945313 219.273438 525.945313 C 218.453125 525.945313 214.546875 520.1875 214.386719 518.269531 C 216.730469 518.074219 229.089844 513.378906 232.050781 512.199219 C 235.203125 510.945313 249.296875 507.882813 249.296875 505.015625 L 249.296875 502.226563 L 246.503906 502.226563 C 235.636719 502.226563 217.34375 512.734375 209.5 513.386719 C 209.070313 511.777344 205.800781 506.382813 206.011719 505.015625 L 205.167969 504.886719 L 211.597656 465.253906 C 209.175781 466.871094 198.320313 482.480469 196.085938 486.03125 C 193.789063 489.679688 191.105469 493.675781 189.246094 497.328125 C 186.785156 502.175781 186.949219 506.410156 179.480469 506.410156 L 176.6875 506.410156 C 171.5 506.410156 153.621094 501.703125 151.425781 499.566406 C 149.269531 497.46875 145.125 478.925781 144.59375 474.300781 C 142.644531 457.261719 136.199219 436.0625 136.199219 418.511719 Z M 426.953125 280.289063 L 427.320313 281.085938 C 431.167969 283.664063 449.660156 304.355469 449.660156 308.992188 C 449.660156 310.699219 436.054688 330.546875 434.140625 332.550781 C 429.359375 337.566406 418.359375 346.660156 409.167969 346.660156 L 408.46875 346.660156 C 402.566406 346.660156 395.824219 330.492188 393.347656 325.496094 C 390.597656 319.964844 382.382813 306.914063 380.976563 301.441406 Z M 104.082031 308.289063 C 104.082031 305.679688 122.867188 282.996094 125.726563 281.085938 C 134.625 283.15625 142.296875 287.199219 150.386719 290.628906 C 156.148438 293.070313 168.523438 300.226563 173.199219 301.316406 C 172.625 303.785156 162.648438 322.203125 160.773438 325.175781 C 158.253906 329.164063 150.929688 346.660156 146.667969 346.660156 L 142.480469 346.660156 C 135.113281 346.660156 123.558594 335.730469 119.265625 331.488281 C 117.332031 329.578125 104.082031 310.695313 104.082031 308.992188 Z M 87.328125 304.105469 L 87.328125 305.503906 C 87.328125 317.253906 99.40625 336.164063 104.644531 344.003906 C 108.488281 349.746094 111.972656 354.996094 115.8125 360.753906 C 117.945313 363.949219 119.25 365.765625 121.070313 369.449219 C 122.339844 372.011719 124.609375 377.78125 125.65625 379.453125 L 126.421875 387.820313 C 126.683594 390.109375 118.046875 405.335938 118.046875 411.539063 L 118.046875 418.511719 C 118.046875 435.183594 125.3125 478.300781 129.476563 492.199219 C 134.671875 509.539063 132.59375 508.734375 147.828125 516.414063 C 153.964844 519.507813 172.605469 526.710938 180.179688 527.339844 C 179.886719 527.738281 156.347656 542.523438 153.371094 544.496094 C 150.324219 546.523438 128.519531 562.800781 128.519531 564.3125 C 128.519531 565.945313 129.675781 567.101563 131.308594 567.101563 C 132.496094 567.101563 184.34375 530.828125 187.859375 530.828125 C 190.160156 530.828125 200.441406 537.335938 201.125 539.894531 C 195.953125 541.277344 161.332031 578.398438 161.332031 583.148438 C 161.332031 584.753906 161.816406 585.238281 163.425781 585.238281 C 165.089844 585.238281 199.46875 547.0625 206.398438 542.355469 L 215.785156 553.847656 C 209.105469 558.320313 176.6875 603.296875 176.6875 611.746094 C 176.6875 612.726563 177.640625 613.144531 178.785156 613.144531 C 182.855469 613.144531 210.582031 561.238281 219.972656 558.730469 C 220.96875 562.449219 236.640625 581.320313 240.046875 584.714844 C 246.183594 590.84375 244.644531 590.710938 253.917969 593.871094 C 257.867188 595.222656 269.492188 597.097656 274.429688 597.097656 L 279.316406 597.097656 C 298.636719 597.097656 303.449219 594.261719 313.351563 584.367188 C 317.871094 579.851563 333.117188 560.101563 335.164063 558.730469 C 343.027344 563.992188 372.308594 613.144531 374.957031 613.144531 L 377.054688 613.144531 C 377.054688 598.578125 338.65625 553.980469 338.65625 553.847656 C 338.65625 550.558594 346.019531 544.300781 348.429688 542.6875 C 351.679688 547.535156 364.761719 557.421875 369.503906 563.484375 C 371.519531 566.0625 388.816406 585.238281 390.316406 585.238281 C 391.925781 585.238281 392.414063 584.753906 392.414063 583.148438 C 392.414063 580.261719 376.832031 562.335938 374.085938 559.601563 C 370.042969 555.570313 354.675781 541.570313 352.617188 538.496094 C 354.070313 537.734375 364.882813 530.828125 365.183594 530.828125 C 371.898438 530.828125 418.484375 566.96875 424.527344 567.101563 C 424.972656 565.230469 425.222656 565.789063 425.222656 564.3125 C 425.222656 562.546875 403.871094 546.882813 400.910156 544.660156 C 396.757813 541.535156 375.515625 529.046875 374.261719 527.339844 C 382.636719 526.644531 400.082031 519.734375 407.167969 516.96875 C 418.542969 512.53125 420.808594 502.746094 424.394531 490.933594 C 428.925781 475.996094 436.394531 434.007813 436.394531 415.722656 C 436.394531 405.804688 427.320313 392.835938 427.320313 386.425781 L 427.320313 385.726563 C 427.320313 374.289063 442.355469 354.472656 447.84375 346.242188 C 452.992188 338.527344 467.113281 315.902344 467.113281 304.804688 C 467.113281 296.070313 441.847656 264.34375 432.207031 264.34375 C 420.550781 264.34375 404.789063 269.703125 396.601563 273.414063 C 393.804688 274.679688 365.957031 287.363281 365.882813 287.363281 C 357.648438 287.363281 332.976563 279.414063 322.769531 277.429688 C 313.402344 275.605469 287.894531 268.421875 277.914063 269.21875 C 262.496094 270.453125 246.679688 273.890625 232.957031 277.320313 C 226.664063 278.890625 192.429688 287.363281 189.253906 287.363281 C 181.027344 287.363281 144.949219 263.644531 126.421875 263.644531 L 125.726563 263.644531 C 113.78125 263.644531 87.328125 293.433594 87.328125 304.105469 Z M 87.328125 304.105469 "/>
<path style=" stroke:none;fill-rule:evenodd;fill:rgb(99.21875%,95.3125%,77.734375%);fill-opacity:1;" d="M 382.636719 479.902344 C 382.636719 474.996094 387.621094 469.4375 392.414063 469.4375 L 393.808594 469.4375 C 398.558594 469.4375 403.582031 475.199219 403.582031 479.902344 L 403.582031 480.601563 C 403.582031 484.949219 398.910156 490.367188 394.507813 490.367188 L 391.714844 490.367188 C 386.75 490.367188 382.636719 485.085938 382.636719 479.902344 Z M 370.769531 461.765625 L 373.5625 461.765625 C 377.089844 461.765625 380.542969 464.28125 380.542969 468.039063 L 380.542969 470.136719 C 380.542969 471.816406 378.035156 474.320313 376.355469 474.320313 L 373.5625 474.320313 C 369.988281 474.320313 366.582031 470.652344 366.582031 467.347656 C 366.582031 465.175781 368.441406 461.765625 370.769531 461.765625 Z M 386.128906 449.203125 C 386.128906 445.769531 389.539063 438.046875 393.109375 438.046875 L 394.507813 438.046875 C 397.359375 438.046875 398.695313 442.683594 398.695313 445.71875 L 398.695313 448.511719 C 398.695313 454.269531 395.84375 462.460938 390.316406 462.460938 C 387.726563 462.460938 386.128906 456.898438 386.128906 453.394531 Z M 307.9375 460.371094 C 304.714844 460.371094 305.953125 448.640625 304.996094 444.472656 C 304.019531 440.210938 301.960938 434.121094 301.105469 430.226563 C 299.421875 422.570313 297.082031 403.367188 300.957031 397.585938 C 311.914063 397.585938 377.664063 396.445313 380.542969 400.371094 L 341.449219 405.964844 C 341.449219 411.660156 338.773438 415.027344 333.070313 415.027344 C 329.3125 415.027344 326.386719 412.300781 326.089844 408.746094 L 322.597656 408.746094 C 316.464844 408.746094 309.335938 414.992188 309.335938 419.910156 L 309.335938 420.605469 C 309.335938 426.601563 316.316406 441.699219 316.316406 446.414063 L 316.316406 454.089844 C 316.316406 456.816406 313.652344 460.371094 311.429688 460.371094 Z M 173.199219 400.371094 C 175.972656 396.589844 241.953125 397.585938 252.785156 397.585938 C 253.796875 399.097656 254.878906 399.90625 254.878906 402.46875 L 254.878906 406.65625 C 254.878906 415.882813 254.394531 422.519531 252.503906 430.09375 C 251.320313 434.84375 247.898438 446.578125 247.898438 450.601563 L 247.898438 460.371094 L 243.710938 460.371094 C 239.28125 460.371094 237.425781 456.382813 237.425781 451.996094 L 237.425781 449.203125 C 237.425781 440.621094 244.40625 428.460938 244.40625 421.304688 C 244.40625 415.144531 237.929688 408.746094 232.539063 408.746094 L 227.652344 408.746094 C 227.355469 412.304688 225.136719 415.027344 221.371094 415.027344 L 219.972656 415.027344 C 216.828125 415.027344 212.992188 412.148438 212.992188 409.445313 L 212.992188 405.953125 Z M 217.179688 357.121094 C 217.179688 353.972656 220.417969 350.847656 222.765625 350.847656 L 224.859375 350.847656 C 227.585938 350.847656 231.144531 353.507813 231.144531 355.730469 L 231.144531 357.824219 C 231.144531 360.78125 228.542969 363.402344 226.257813 363.402344 L 223.464844 363.402344 C 220.011719 363.402344 217.179688 360.574219 217.179688 357.121094 Z M 179.480469 353.636719 C 179.480469 348.828125 183.890625 343.871094 188.558594 343.871094 L 191.351563 343.871094 C 195.289063 343.871094 199.726563 348.105469 199.726563 352.242188 L 199.726563 355.730469 C 199.726563 359.265625 195.59375 364.101563 192.746094 364.101563 L 187.859375 364.101563 C 183.210938 364.101563 179.480469 358.546875 179.480469 353.636719 Z M 192.046875 321.546875 C 192.046875 316.820313 197.675781 308.992188 202.519531 308.992188 L 206.011719 308.992188 C 211.171875 308.992188 216.484375 315.902344 216.484375 321.546875 L 216.484375 326.429688 C 216.484375 332.074219 211.402344 339.683594 206.011719 339.683594 L 204.613281 339.683594 C 198.105469 339.683594 192.046875 332.816406 192.046875 327.128906 Z M 233.9375 321.546875 C 233.9375 317.203125 238.597656 306.898438 243.710938 306.898438 L 244.40625 306.898438 C 246.035156 306.898438 247.898438 308.757813 247.898438 310.386719 L 247.898438 316.664063 C 247.898438 321.433594 242.875 330.617188 238.824219 330.617188 C 235.898438 330.617188 233.9375 327.234375 233.9375 324.335938 Z M 136.199219 418.511719 C 136.199219 436.0625 142.644531 457.261719 144.59375 474.300781 C 145.125 478.925781 149.269531 497.46875 151.425781 499.566406 C 153.621094 501.703125 171.5 506.410156 176.6875 506.410156 L 179.480469 506.410156 C 186.949219 506.410156 186.785156 502.175781 189.246094 497.328125 C 191.105469 493.675781 193.789063 489.679688 196.085938 486.03125 C 198.320313 482.480469 209.175781 466.871094 211.597656 465.253906 L 205.167969 504.886719 L 206.011719 505.015625 C 205.800781 506.382813 209.070313 511.777344 209.5 513.386719 C 217.34375 512.734375 235.636719 502.226563 246.503906 502.226563 L 249.296875 502.226563 L 249.296875 505.015625 C 249.296875 507.882813 235.203125 510.945313 232.050781 512.199219 C 229.089844 513.378906 216.730469 518.074219 214.386719 518.269531 C 214.546875 520.1875 218.453125 525.945313 219.273438 525.945313 C 221.054688 525.945313 236.515625 516.871094 248.597656 516.871094 C 249.574219 516.871094 249.992188 517.828125 249.992188 518.96875 L 249.992188 521.0625 C 238.296875 523.785156 231.542969 524.953125 222.765625 530.828125 L 229.890625 541.1875 C 236.621094 536.691406 242.023438 533.703125 251.390625 531.523438 C 252.476563 532.253906 253.484375 532.449219 253.484375 534.316406 C 253.484375 534.316406 234.84375 544.402344 233.238281 545.476563 L 245.140625 562.195313 C 248.820313 559.734375 272.332031 545.023438 272.332031 541.988281 L 272.332031 515.480469 C 272.332031 511.476563 243.011719 484.863281 243.011719 478.507813 C 243.011719 475.058594 245.84375 472.230469 249.296875 472.230469 L 304.449219 472.230469 C 307.171875 472.230469 310.730469 474.890625 310.730469 477.113281 L 310.730469 479.203125 C 310.730469 484.703125 281.410156 511.992188 281.410156 515.480469 L 281.410156 541.988281 C 281.410156 544.234375 306.578125 561.484375 309.335938 562.21875 L 320.464844 546.144531 C 318.535156 543.234375 305.617188 536.097656 300.957031 535.710938 L 300.957031 533.617188 C 300.957031 532.011719 301.441406 531.523438 303.050781 531.523438 C 308.988281 531.523438 322.769531 540.59375 323.996094 540.59375 C 324.796875 540.59375 330.800781 532.261719 330.976563 530.128906 C 328.953125 529.660156 319.890625 525.550781 317.253906 524.308594 C 313.730469 522.652344 303.75 522.0625 303.75 518.96875 C 303.75 517.359375 304.234375 516.871094 305.84375 516.871094 L 307.238281 516.871094 C 315.773438 516.871094 328.613281 522.847656 334.46875 525.945313 L 340.082031 518.992188 C 334.242188 516.183594 328.199219 514.496094 321.691406 512.199219 C 318.644531 511.121094 304.449219 507.691406 304.449219 505.015625 L 304.449219 504.320313 C 304.449219 502.710938 304.933594 502.226563 306.542969 502.226563 C 317.332031 502.226563 334.742188 511.175781 344.242188 513.386719 C 348.867188 504.65625 349.214844 500.871094 346.589844 489.414063 C 344.660156 480.976563 344.035156 472.652344 342.148438 464.554688 C 345.019531 466.480469 354.210938 480.921875 356.808594 484.785156 C 358.71875 487.617188 361.640625 492.890625 362.996094 496.039063 C 363.527344 497.273438 367.394531 507.808594 367.976563 507.808594 C 377.90625 507.808594 388.835938 504.871094 396.324219 501.949219 C 401.523438 499.910156 404.320313 499.289063 405.53125 493.703125 C 406.484375 489.316406 407.925781 483.523438 408.402344 479.835938 C 409.699219 469.746094 412.488281 460.210938 413.335938 450.578125 C 414.242188 440.289063 417.546875 432.085938 417.546875 420.605469 L 417.546875 415.027344 C 417.546875 407.617188 378.777344 337.03125 372.886719 327.105469 C 358.332031 302.585938 363.726563 307.378906 334.492188 299.199219 C 325.171875 296.59375 289.140625 288.0625 280.011719 288.0625 L 274.429688 288.0625 C 268.003906 288.0625 224.246094 297.570313 218.371094 299.714844 C 208.792969 303.214844 201.117188 301.578125 192.996094 307.847656 C 190.890625 309.472656 181.820313 325.265625 180.167969 328.511719 C 172.703125 343.214844 164.75 357.371094 156.917969 372.246094 C 151.636719 382.277344 136.199219 406.234375 136.199219 418.511719 Z M 136.199219 418.511719 "/>
<path style=" stroke:none;fill-rule:evenodd;fill:rgb(99.21875%,95.3125%,77.734375%);fill-opacity:1;" d="M 253.484375 571.984375 C 255.609375 575.15625 258.652344 578.265625 263.957031 578.265625 L 286.296875 578.265625 C 292.375 578.265625 299.65625 576.148438 300.957031 571.289063 C 296.144531 570.003906 280.757813 550.769531 275.824219 550.359375 Z M 253.484375 571.984375 "/>
<path style=" stroke:none;fill-rule:evenodd;fill:rgb(100%,83.201599%,18.431091%);fill-opacity:1;" d="M 87.328125 304.105469 C 87.328125 293.433594 113.78125 263.644531 125.726563 263.644531 L 126.421875 263.644531 C 144.949219 263.644531 181.027344 287.363281 189.253906 287.363281 C 192.429688 287.363281 226.664063 278.890625 232.957031 277.320313 C 246.679688 273.890625 262.496094 270.453125 277.914063 269.21875 C 287.894531 268.421875 313.402344 275.605469 322.769531 277.429688 C 332.976563 279.414063 357.648438 287.363281 365.882813 287.363281 C 365.957031 287.363281 393.804688 274.679688 396.601563 273.414063 C 404.789063 269.703125 420.550781 264.34375 432.207031 264.34375 C 441.847656 264.34375 467.113281 296.070313 467.113281 304.804688 C 467.113281 315.902344 452.992188 338.527344 447.84375 346.242188 C 442.355469 354.472656 427.320313 374.289063 427.320313 385.726563 L 427.320313 386.425781 C 427.320313 392.835938 436.394531 405.804688 436.394531 415.722656 C 436.394531 434.007813 428.925781 475.996094 424.394531 490.933594 C 420.808594 502.746094 418.542969 512.53125 407.167969 516.96875 C 400.082031 519.734375 382.636719 526.644531 374.261719 527.339844 C 375.515625 529.046875 396.757813 541.535156 400.910156 544.660156 C 403.871094 546.882813 425.222656 562.546875 425.222656 564.3125 C 425.222656 565.789063 424.972656 565.230469 424.527344 567.101563 C 418.484375 566.96875 371.898438 530.828125 365.183594 530.828125 C 364.882813 530.828125 354.070313 537.734375 352.617188 538.496094 C 354.675781 541.570313 370.042969 555.570313 374.085938 559.601563 C 376.832031 562.335938 392.414063 580.261719 392.414063 583.148438 C 392.414063 584.753906 391.925781 585.238281 390.316406 585.238281 C 388.816406 585.238281 371.519531 566.0625 369.503906 563.484375 C 364.761719 557.421875 351.679688 547.535156 348.429688 542.6875 C 346.019531 544.300781 338.65625 550.558594 338.65625 553.847656 C 338.65625 553.980469 377.054688 598.578125 377.054688 613.144531 L 374.957031 613.144531 C 372.308594 613.144531 343.027344 563.992188 335.164063 558.730469 C 333.117188 560.101563 317.871094 579.851563 313.351563 584.367188 C 303.449219 594.261719 298.636719 597.097656 279.316406 597.097656 L 274.429688 597.097656 C 269.492188 597.097656 257.867188 595.222656 253.917969 593.871094 C 244.644531 590.710938 246.183594 590.84375 240.046875 584.714844 C 236.640625 581.320313 220.96875 562.449219 219.972656 558.730469 C 210.582031 561.238281 182.855469 613.144531 178.785156 613.144531 C 177.640625 613.144531 176.6875 612.726563 176.6875 611.746094 C 176.6875 603.296875 209.105469 558.320313 215.785156 553.847656 L 206.398438 542.355469 C 199.46875 547.0625 165.089844 585.238281 163.425781 585.238281 C 161.816406 585.238281 161.332031 584.753906 161.332031 583.148438 C 161.332031 578.398438 195.953125 541.277344 201.125 539.894531 C 200.441406 537.335938 190.160156 530.828125 187.859375 530.828125 C 184.34375 530.828125 132.496094 567.101563 131.308594 567.101563 C 129.675781 567.101563 128.519531 565.945313 128.519531 564.3125 C 128.519531 562.800781 150.324219 546.523438 153.371094 544.496094 C 156.347656 542.523438 179.886719 527.738281 180.179688 527.339844 C 172.605469 526.710938 153.964844 519.507813 147.828125 516.414063 C 132.59375 508.734375 134.671875 509.539063 129.476563 492.199219 C 125.3125 478.300781 118.046875 435.183594 118.046875 418.511719 L 118.046875 411.539063 C 118.046875 405.335938 126.683594 390.109375 126.421875 387.820313 L 125.65625 379.453125 C 124.609375 377.78125 122.339844 372.011719 121.070313 369.449219 C 119.25 365.765625 117.945313 363.949219 115.8125 360.753906 C 111.972656 354.996094 108.488281 349.746094 104.644531 344.003906 C 99.40625 336.164063 87.328125 317.253906 87.328125 305.503906 Z M 61.496094 506.410156 L 61.496094 522.453125 C 61.496094 544.089844 76.480469 569.898438 87.5 580.882813 C 103.269531 596.597656 117.703125 603.714844 141.34375 611.492188 C 184.023438 625.535156 218.742188 648.023438 274.429688 648.023438 L 277.917969 648.023438 C 303.832031 648.023438 332.464844 643.347656 350.0625 635.007813 C 359.039063 630.753906 371.222656 626.914063 380.816406 623.183594 C 391.738281 618.933594 401.535156 615.703125 412.378906 611.46875 C 438.855469 601.136719 448.015625 599.929688 466.574219 580.515625 C 477.863281 568.703125 492.941406 543.507813 492.941406 521.0625 C 492.941406 492.339844 488.996094 461.949219 488.03125 433.1875 C 487.0625 404.214844 484.597656 373.761719 482.464844 345.269531 C 479.980469 312.058594 483.921875 287.546875 471.542969 262.703125 C 463.058594 245.691406 439.195313 226.675781 414.054688 226.675781 L 141.78125 226.675781 C 115.34375 226.675781 94.761719 242.933594 84.386719 259.3125 C 79.042969 267.742188 74.023438 280.027344 74.0625 293.644531 C 74.082031 299.464844 73.570313 309.726563 72.820313 314.722656 C 71.703125 322.144531 72.777344 329.554688 71.917969 336.84375 C 70.359375 350.148438 69.761719 364.472656 69.203125 378.777344 C 68.804688 389.050781 68.390625 412.085938 66.664063 421.578125 C 64.429688 433.851563 66.136719 451.019531 64.140625 463.710938 C 63.335938 468.839844 62.890625 478.71875 62.894531 484.785156 C 62.898438 493.253906 61.496094 498.28125 61.496094 506.410156 Z M 61.496094 506.410156 "/>
<path style=" stroke:none;fill-rule:evenodd;fill:rgb(10.594177%,9.812927%,9.423828%);fill-opacity:1;" d="M 61.496094 506.410156 C 61.496094 498.28125 62.898438 493.253906 62.894531 484.785156 C 62.890625 478.71875 63.335938 468.839844 64.140625 463.710938 C 66.136719 451.019531 64.429688 433.851563 66.664063 421.578125 C 68.390625 412.085938 68.804688 389.050781 69.203125 378.777344 C 69.761719 364.472656 70.359375 350.148438 71.917969 336.84375 C 72.777344 329.554688 71.703125 322.144531 72.820313 314.722656 C 73.570313 309.726563 74.082031 299.464844 74.0625 293.644531 C 74.023438 280.027344 79.042969 267.742188 84.386719 259.3125 C 94.761719 242.933594 115.34375 226.675781 141.78125 226.675781 L 414.054688 226.675781 C 439.195313 226.675781 463.058594 245.691406 471.542969 262.703125 C 483.921875 287.546875 479.980469 312.058594 482.464844 345.269531 C 484.597656 373.761719 487.0625 404.214844 488.03125 433.1875 C 488.996094 461.949219 492.941406 492.339844 492.941406 521.0625 C 492.941406 543.507813 477.863281 568.703125 466.574219 580.515625 C 448.015625 599.929688 438.855469 601.136719 412.378906 611.46875 C 401.535156 615.703125 391.738281 618.933594 380.816406 623.183594 C 371.222656 626.914063 359.039063 630.753906 350.0625 635.007813 C 332.464844 643.347656 303.832031 648.023438 277.917969 648.023438 L 274.429688 648.023438 C 218.742188 648.023438 184.023438 625.535156 141.34375 611.492188 C 117.703125 603.714844 103.269531 596.597656 87.5 580.882813 C 76.480469 569.898438 61.496094 544.089844 61.496094 522.453125 Z M 50.328125 372.472656 C 42.132813 366.988281 29.308594 347.644531 25.285156 337.496094 C 18.730469 320.964844 19.398438 306.65625 21 285.265625 C 21.667969 276.351563 22.425781 266.820313 23.09375 257.363281 C 23.652344 249.460938 25.234375 237.601563 25.199219 230.164063 C 25.144531 219.765625 26.632813 211.183594 27.292969 202.261719 C 27.953125 193.398438 27.597656 183.054688 29.105469 174.773438 C 29.890625 170.453125 30.816406 150.769531 30.773438 146.445313 C 30.691406 137.828125 32.789063 127.015625 32.902344 119.269531 C 33.109375 104.835938 34.539063 75.242188 39.148438 66.21875 C 46.417969 51.992188 53.371094 42.847656 66.507813 34.261719 C 75.980469 28.070313 95.828125 19.488281 111.066406 19.488281 L 438.488281 19.488281 C 467.351563 19.488281 492.84375 34.578125 505.640625 50.746094 C 523.800781 73.691406 518.078125 97.84375 522.242188 132.519531 C 523.925781 146.503906 522.917969 165.660156 525.335938 178.953125 C 526.933594 187.746094 528.601563 215.445313 528.550781 224.578125 C 528.46875 239.769531 530.988281 255.570313 532.042969 269.914063 C 533.167969 285.179688 534.132813 300.828125 534.132813 316.664063 C 534.132813 332.253906 513.414063 369.105469 503.414063 371.773438 L 503.414063 364.101563 C 503.414063 346.34375 499.804688 324.191406 499.925781 306.894531 C 500.070313 286.6875 497.011719 270.089844 490.140625 256.679688 C 483.378906 243.484375 474.742188 232.339844 462.636719 224.171875 C 452.414063 217.273438 435.484375 207.839844 418.941406 207.839844 L 134.101563 207.839844 C 118.671875 207.839844 98.714844 218.519531 89.539063 225.394531 C 79.023438 233.269531 67.21875 246.96875 62.101563 260.0625 C 59.949219 265.570313 55.382813 277.328125 55.210938 284.570313 C 55.050781 291.28125 54.558594 307.078125 53.398438 313.453125 C 52.324219 319.355469 51.785156 336.949219 51.695313 343.144531 C 51.554688 352.992188 50.328125 363.121094 50.328125 372.472656 Z M 0.0625 311.078125 C 0.0625 330.097656 8.453125 349.601563 15.96875 361.460938 C 20.808594 369.09375 40.433594 393.414063 48.234375 395.492188 L 48.234375 401.769531 L 41.578125 522.433594 L 41.949219 524.550781 C 41.949219 549.425781 58.460938 575.089844 69.457031 589.84375 C 82.570313 607.441406 102.9375 618.289063 125.996094 626.121094 C 137.453125 630.019531 148.429688 634.984375 159.835938 639.054688 C 170.601563 642.894531 182.378906 648.320313 193.300781 651.65625 C 205.039063 655.234375 214.089844 659.875 228.296875 662.730469 C 239.078125 664.894531 257.078125 667.558594 269.539063 667.558594 L 284.203125 667.558594 C 311.820313 667.558594 341.867188 659.808594 361.472656 651.289063 C 372.070313 646.6875 384.371094 642.492188 395.613281 638.664063 C 400.84375 636.882813 406.9375 633.65625 412.085938 632.105469 C 416.488281 630.785156 424.9375 627.84375 428.953125 625.9375 C 441.878906 619.8125 448.816406 619.054688 460.828125 611.046875 C 470.117188 604.863281 477.871094 597.742188 485.085938 589.246094 C 496.566406 575.722656 511.792969 547.738281 511.792969 523.152344 L 511.792969 510.597656 L 505.621094 403.859375 L 505.511719 397.585938 C 505.511719 396.679688 520.328125 383.113281 522.433594 381.011719 C 527.894531 375.554688 532.859375 369.511719 537.074219 362.855469 C 544.46875 351.183594 553.679688 331.789063 553.679688 313.175781 C 553.679688 300.449219 552.171875 274.46875 550.339844 262.800781 C 549.503906 257.484375 548.746094 242.363281 548.796875 237.132813 C 548.875 229.34375 547.199219 219.5625 546.695313 212.726563 C 545.539063 197.074219 546.105469 176.59375 543.488281 162.214844 C 542.699219 157.886719 541.785156 141.628906 541.804688 137.390625 C 541.835938 129.359375 540.4375 120.871094 540.433594 112.246094 C 540.429688 106.195313 538.820313 93.996094 538.316406 87.160156 C 537.683594 78.605469 537.226563 70.914063 534.761719 64.199219 C 529.957031 51.089844 523.191406 40.296875 514.0625 31.171875 C 498.21875 15.34375 469.921875 -0.046875 438.488281 -0.046875 L 111.761719 -0.046875 C 86.46875 -0.046875 49.25 18.003906 38.738281 32.320313 C 31.210938 42.574219 22.648438 50.722656 19.0625 64.984375 C 15.617188 78.699219 14.054688 95.460938 14.042969 112.285156 C 14.035156 120.507813 11.898438 128.453125 11.929688 136.683594 C 11.964844 146.390625 10.703125 151.839844 10.558594 161.824219 C 10.339844 177.191406 7.273438 194.269531 7.070313 210.65625 C 6.914063 223.269531 5.296875 247.210938 3.628906 259.535156 C 2.503906 267.84375 2.535156 275.546875 2.183594 284.601563 C 1.886719 292.203125 0.0625 300.910156 0.0625 308.289063 Z M 0.0625 311.078125 "/>
<path style=" stroke:none;fill-rule:evenodd;fill:rgb(98.046875%,94.139099%,81.25%);fill-opacity:1;" d="M 170.304688 154.007813 C 173.078125 154.007813 175.328125 156.261719 175.328125 159.035156 C 175.328125 161.8125 173.078125 164.0625 170.304688 164.0625 C 167.527344 164.0625 165.277344 161.8125 165.277344 159.035156 C 165.277344 156.261719 167.527344 154.007813 170.304688 154.007813 Z M 170.304688 154.007813 "/>
</g>
</svg>
