<svg xmlns="http://www.w3.org/2000/svg"  viewBox="0 0 64 64" width="128px" height="128px"><linearGradient id="p~wu6aKtKUsO7ner~6QXma" x1="32" x2="32" y1="5.167" y2="59" gradientUnits="userSpaceOnUse" spreadMethod="reflect"><stop offset="0" stop-color="#1a6dff"/><stop offset="1" stop-color="#c822ff"/></linearGradient><path fill="url(#p~wu6aKtKUsO7ner~6QXma)" d="M28,59c-0.404,0-0.776-0.246-0.929-0.632C25.081,53.347,21.377,44,18.625,44 c-1.286,0-2.558,0.824-2.57,0.832c-0.346,0.232-0.801,0.224-1.139-0.021l-12.5-9c-0.294-0.212-0.451-0.568-0.409-0.929 s0.277-0.67,0.613-0.808l16.466-6.758c0.735-1.085,3.588-5.061,6.68-6.25c0.467-0.18,0.857-0.326,1.189-0.45 c1.673-0.627,1.673-0.627,2.953-1.83l0.283-0.266c1.739-1.63,5.057-6.753,6.083-8.419c0.118-0.193,0.244-0.405,0.377-0.629 C37.768,7.584,39.297,5,41.625,5c2.67,0,4.088,2.751,5.666,6.349c1.45,3.307,5.323,14.258,6.907,18.957 c3.81,11.307,7.661,19.175,7.7,19.253c0.195,0.397,0.106,0.876-0.22,1.177c-0.325,0.301-0.809,0.352-1.191,0.123 c-0.081-0.048-2.018-1.222-5.194-4.402C52.937,44.099,51.017,43,49.25,43c-3.109,0-5.305,2.472-8.086,5.603l-0.166,0.187 c-0.33,0.371-0.693,0.797-1.089,1.26c-2.76,3.231-6.93,8.115-11.74,8.937C28.112,58.996,28.055,59,28,59z M18.625,42 c3.693,0,6.614,6.372,9.988,14.835c3.806-1.095,7.367-5.265,9.775-8.084c0.405-0.474,0.778-0.911,1.115-1.29l0.166-0.187 C42.66,43.907,45.243,41,49.25,41c3.03,0,5.577,2.161,7.458,4.043c0.597,0.598,1.147,1.12,1.646,1.573 c-1.506-3.434-3.789-8.959-6.051-15.672c-1.635-4.852-5.475-15.672-6.843-18.793C43.994,8.811,42.949,7,41.625,7 c-1.188,0-2.481,2.185-3.254,3.491c-0.139,0.235-0.271,0.457-0.395,0.658c-0.041,0.067-4.119,6.676-6.417,8.831l-0.281,0.264 c-1.527,1.436-1.628,1.499-3.62,2.245c-0.327,0.123-0.712,0.267-1.174,0.445c-2.415,0.929-5.072,4.452-5.892,5.731 c-0.111,0.173-0.272,0.308-0.462,0.386L5.046,35.241l10.519,7.573C16.241,42.47,17.39,42,18.625,42z"/><linearGradient id="p~wu6aKtKUsO7ner~6QXmb" x1="28.349" x2="28.349" y1="5.167" y2="59" gradientUnits="userSpaceOnUse" spreadMethod="reflect"><stop offset="0" stop-color="#1a6dff"/><stop offset="1" stop-color="#c822ff"/></linearGradient><path fill="url(#p~wu6aKtKUsO7ner~6QXmb)" d="M15.926,44.905l-0.853-1.809c0.062-0.029,6.192-2.995,10.962-10.388 c4.531-7.023,6.769-12.507,7.971-15.453c0.306-0.75,0.54-1.32,0.719-1.69c0.44-0.911,0.865-2.007,1.315-3.168 C37.45,8.76,38.909,5,41.625,5v2c-1.347,0-2.719,3.537-3.72,6.12c-0.465,1.199-0.905,2.332-1.379,3.315 c-0.167,0.345-0.382,0.877-0.668,1.577c-1.227,3.006-3.51,8.601-8.142,15.781C22.619,41.692,16.197,44.777,15.926,44.905z"/><linearGradient id="p~wu6aKtKUsO7ner~6QXmc" x1="23.25" x2="23.25" y1="5.167" y2="59" gradientUnits="userSpaceOnUse" spreadMethod="reflect"><stop offset="0" stop-color="#1a6dff"/><stop offset="1" stop-color="#c822ff"/></linearGradient><path fill="url(#p~wu6aKtKUsO7ner~6QXmc)" d="M26.15 34.175L19.15 28.925 20.35 27.325 27.35 32.575z"/><linearGradient id="p~wu6aKtKUsO7ner~6QXmd" x1="37.45" x2="37.45" y1="4.436" y2="59.469" gradientUnits="userSpaceOnUse" spreadMethod="reflect"><stop offset="0" stop-color="#6dc7ff"/><stop offset="1" stop-color="#e6abff"/></linearGradient><path fill="url(#p~wu6aKtKUsO7ner~6QXmd)" d="M38.173,45.946c3.119-3.511,6.068-6.83,10.827-6.943c0,0-3.375-14.878-6.25-27.128 C42.166,9.386,41.933,9,41.69,9c-0.165,0-0.361,0.365-0.516,1.206c-0.831,4.491-4.759,21.216-7.924,29.294 c-1.209,3.086-3.371,4.901-5.25,5.75C27.14,45.639,25.9,46,25.9,46c1.301,2.279,2.537,5.08,3.809,8.202 c2.686-1.513,5.313-4.59,7.158-6.75c0.414-0.485,0.796-0.931,1.142-1.321L38.173,45.946z"/></svg>