<?xml version="1.0" encoding="utf-8"?>
<!-- Generator: Adobe Illustrator 22.1.0, SVG Export Plug-In . SVG Version: 6.00 Build 0)  -->
<svg version="1.1" id="Layer_1" xmlns="http://www.w3.org/2000/svg" xmlns:xlink="http://www.w3.org/1999/xlink" x="0px" y="0px"
	 viewBox="0 0 512 512" style="enable-background:new 0 0 512 512;" xml:space="preserve">
<g>
	<path d="M256,31C131.7,31,31,131.7,31,256s100.7,225,225,225s225-100.7,225-225S380.3,31,256,31z M377.3,161.2
		c-10.4,0.4-17.6-5.9-17.9-15.3c-0.2-8.3,6.1-12.2,5.9-17.1c-0.2-5.9-9.2-6.2-11.7-6.1c-36.1,1.2-44.1,51.7-53.4,103.3
		c19.4,2.9,33.3-0.7,41-5.6c10.9-7-3-14.3-1.3-22.3c3.6-16.5,29.5-17.2,29,4.8c-0.3,16.2-23.5,37.9-70.4,32.4
		c-9.8,54-16.6,104.3-52.8,146.7c-26.3,31.3-53,36.1-64.9,36.5c-22.4,0.8-37.2-11.2-37.7-27.1c-0.5-15.4,13.1-23.8,22.1-24.1
		c19.9-0.7,27.3,23.3,13.5,30.8c-11,8.8,0.1,11.4,1.9,11.4c9.5-0.3,15.7-5,20.1-8.2c21.8-18.1,30.2-49.8,41.1-107.4
		c7.4-45.1,15.4-70.8,16.5-74.4c-15.4-11.6-24.6-25.9-45.2-31.5c-14.2-3.8-22.8-0.6-28.9,7.1c-7.2,9.1-4.8,20.9,2.2,27.9l11.5,12.7
		c14.1,16.3,21.8,28.9,18.9,45.9c-4.6,27.2-36.9,48-75.2,36.2c-32.7-10.1-38.7-33.2-34.8-45.9c6.8-21.9,38.4-10.6,31.4,12.3
		c-2.5,7.8-4.5,7.9-5.7,11.9c-4.1,13.4,38,25.8,46.3-1.3c4.1-13.2-4.8-19.7-20.2-36.2c-25.8-28.8-14.5-59.4,2.7-72.3
		c47.9-35.7,91.2,15.9,100.3,23.4c33.7-98.9,91.2-95.7,92.9-95.7c22.8-0.7,40.1,9.6,40.7,26C395.3,147.2,391.3,160.7,377.3,161.2
		L377.3,161.2z"/>
</g>
</svg>
