<?xml version="1.0" encoding="UTF-8"?><svg xmlns="http://www.w3.org/2000/svg" xmlns:xlink="http://www.w3.org/1999/xlink" version="1.1" id="Layer_1" x="0px" y="0px" viewBox="0 0 16 16" xml:space="preserve"><path d="M15.191 8.231A.499.499 0 0 0 14.77 8h-6a.499.499 0 0 0-.453.289l-3.27 7A.5.5 0 0 0 5.5 16h6a.5.5 0 0 0 .453-.288l3.27-7a.502.502 0 0 0-.032-.481z" fill="#2196F3"/><path d="M12.922.231A.5.5 0 0 0 12.5 0h-5a.499.499 0 0 0-.453.289l-7 15A.5.5 0 0 0 .5 16h5a.5.5 0 0 0 .453-.288l7-15a.502.502 0 0 0-.031-.481z" fill="#FFC107"/><metadata><rdf:RDF xmlns:rdf="http://www.w3.org/1999/02/22-rdf-syntax-ns#" xmlns:rdfs="http://www.w3.org/2000/01/rdf-schema#" xmlns:dc="http://purl.org/dc/elements/1.1/"><rdf:Description about="https://iconscout.com/legal#licenses" dc:title="google,adsense,logo,color,e" dc:description="google,adsense,logo,color,e" dc:publisher="Iconscout" dc:date="2018-02-17" dc:format="image/svg+xml" dc:language="en"><dc:creator><rdf:Bag><rdf:li>Pixel Icons</rdf:li></rdf:Bag></dc:creator></rdf:Description></rdf:RDF></metadata></svg>