<?xml version="1.0" ?><!DOCTYPE svg  PUBLIC '-//W3C//DTD SVG 1.1//EN'  'http://www.w3.org/Graphics/SVG/1.1/DTD/svg11.dtd'><svg height="512px" style="enable-background:new 0 0 512 512;" version="1.1" viewBox="0 0 512 512" width="512px" xml:space="preserve" xmlns="http://www.w3.org/2000/svg" xmlns:xlink="http://www.w3.org/1999/xlink"><g id="_x31_02-DUO"><g><path d="M439.258,46.001H263.271c-113.552,0-208.507,85.555-216.181,194.788    c-4.292,61.002,17.882,120.678,60.816,163.733c39.43,39.53,92.787,61.477,148.344,61.477c4.948,0,9.919-0.156,14.924-0.523    c108.911-7.691,194.26-102.909,194.26-216.764V72.253C465.435,57.79,453.704,46.001,439.258,46.001z" style="fill:#2299F8;"/><path d="M386.894,295.392L386.894,295.392c-0.001,4.542-2.359,8.768-6.21,11.182    c-3.817,2.34-8.662,2.627-12.722,0.555l-33.433-16.747v31.261c0,7.248-5.863,13.128-13.09,13.128H164.356    c-7.229,0-13.092-5.88-13.092-13.128V190.385c0-7.248,5.864-13.127,13.092-13.127h157.083c7.227,0,13.09,5.879,13.09,13.127    v31.265l33.41-16.748c4.031-2.048,8.904-1.812,12.725,0.578c3.871,2.392,6.229,6.616,6.229,11.158V295.392z" style="fill:#FFFFFF;"/></g></g><g id="Layer_1"/></svg>