<?xml version="1.0" ?><svg height="32" id="svg4063" version="1.1" viewBox="0 0 32 32.000001" width="32" xmlns="http://www.w3.org/2000/svg" xmlns:cc="http://creativecommons.org/ns#" xmlns:dc="http://purl.org/dc/elements/1.1/" xmlns:inkscape="http://www.inkscape.org/namespaces/inkscape" xmlns:rdf="http://www.w3.org/1999/02/22-rdf-syntax-ns#" xmlns:sodipodi="http://sodipodi.sourceforge.net/DTD/sodipodi-0.dtd" xmlns:svg="http://www.w3.org/2000/svg"><defs id="defs4065"/><g id="layer1" transform="translate(0,-1020.3621)"><g id="g7966" transform="translate(-766.49658,-562.0323)"><g id="g8143"><path d="m 771.9507,1587.3944 21.08151,0 c 0.80842,0 1.45925,0.6508 1.45925,1.4593 l 0,21.0815 c 0,0.8084 -0.65083,1.4592 -1.45925,1.4592 l -21.08151,0 c -0.80842,0 -1.45924,-0.6508 -1.45924,-1.4592 l 0,-21.0815 c 0,-0.8085 0.65082,-1.4593 1.45924,-1.4593 z" id="rect4968" style="fill:#53c4f7;fill-opacity:1;stroke:none;stroke-width:1"/><path d="m 775.50165,1594.2965 a 3.5000033,3.5561447 0 0 1 -1.75,3.0797 3.5000033,3.5561447 0 0 1 -3.5,0 3.5000033,3.5561447 0 0 1 -1.75001,-3.0797 l 3.50001,0 z" id="path4972" style="fill:#4788f4;fill-opacity:1;stroke:none;stroke-width:1.00000012;stroke-linecap:round;stroke-linejoin:round"/><path d="m 768.49146,1594.2947 2,-8.4002 c 0.19247,-0.8084 0.66901,-1.5 1.50002,-1.5 l 20.99997,0 c 0.83101,0 1.30755,0.6916 1.50002,1.5 l 2,8.4002" id="path4974" style="fill:#4788f4;fill-opacity:1;stroke:none;stroke-width:1;stroke-linecap:round;stroke-linejoin:round"/><path d="m 782.50165,1594.2965 a 3.5000033,3.5561447 0 0 1 -1.75,3.0797 3.5000033,3.5561447 0 0 1 -3.5,0 3.5000033,3.5561447 0 0 1 -1.75001,-3.0797 l 3.50001,0 z" id="path5264" style="fill:#12aef5;fill-opacity:1;stroke:none;stroke-width:1.00000012;stroke-linecap:round;stroke-linejoin:round"/><path d="m 775.49184,1594.2947 1.00001,-9.9002 6.05,0 -0.0391,9.9" id="path5266" style="fill:#12aef5;fill-opacity:1;stroke:none;stroke-width:1;stroke-linecap:round;stroke-linejoin:round"/><path d="m 789.50171,1594.2965 a 3.5000033,3.5561447 0 0 1 -1.75,3.0797 3.5000033,3.5561447 0 0 1 -3.5,0 3.5000033,3.5561447 0 0 1 -1.75,-3.0797 l 3.5,0 z" id="path5272" style="fill:#4788f4;fill-opacity:1;stroke:none;stroke-width:1.00000012;stroke-linecap:round;stroke-linejoin:round"/><path d="m 796.50171,1594.2965 a 3.5000033,3.5561447 0 0 1 -1.75,3.0797 3.5000033,3.5561447 0 0 1 -3.5,0 3.5000033,3.5561447 0 0 1 -1.75,-3.0797 l 3.5,0 z" id="path5274" style="fill:#12aef5;fill-opacity:1;stroke:none;stroke-width:1.00000012;stroke-linecap:round;stroke-linejoin:round"/><path d="m 789.50279,1594.2945 -0.96094,-9.9 4.4496,0 c 0.83101,0 1.30754,0.6916 1.50002,1.5 l 2,8.4" id="path5278" style="fill:#12aef5;fill-opacity:1;stroke:none;stroke-width:1;stroke-linecap:round;stroke-linejoin:round"/><path d="m 788.59961,1602.9199 c -0.63892,0.084 -1.25118,0.3742 -1.73047,0.8535 -0.95862,0.9586 -1.15441,2.4471 -0.47656,3.6211 0.67783,1.174 2.06558,1.7493 3.375,1.3985 1.30943,-0.3509 2.2246,-1.5428 2.22461,-2.8985 a 0.50005,0.50005 0 0 0 -0.5,-0.5 l -2.50196,0 a 0.50005,0.50005 0 1 0 0,1 l 1.83204,0 c -0.18637,0.6685 -0.61742,1.2449 -1.31446,1.4317 -0.87694,0.2349 -1.79607,-0.1455 -2.25,-0.9317 -0.45393,-0.7862 -0.32356,-1.7722 0.31836,-2.414 0.64196,-0.642 1.62784,-0.7723 2.41406,-0.3184 a 0.50099892,0.50099892 0 1 0 0.50196,-0.8672 c -0.58701,-0.3389 -1.25366,-0.4591 -1.89258,-0.375 z" id="path5290" style="color:#000000;font-style:normal;font-variant:normal;font-weight:normal;font-stretch:normal;font-size:medium;line-height:normal;font-family:sans-serif;text-indent:0;text-align:start;text-decoration:none;text-decoration-line:none;text-decoration-style:solid;text-decoration-color:#000000;letter-spacing:normal;word-spacing:normal;text-transform:none;direction:ltr;block-progression:tb;writing-mode:lr-tb;baseline-shift:baseline;text-anchor:start;white-space:normal;clip-rule:nonzero;display:inline;overflow:visible;visibility:visible;opacity:1;isolation:auto;mix-blend-mode:normal;color-interpolation:sRGB;color-interpolation-filters:linearRGB;solid-color:#000000;solid-opacity:1;fill:#dd5044;fill-opacity:1;fill-rule:nonzero;stroke:none;stroke-width:1;stroke-linecap:round;stroke-linejoin:round;stroke-miterlimit:4.0999999;stroke-dasharray:none;stroke-dashoffset:0;stroke-opacity:1;color-rendering:auto;image-rendering:auto;shape-rendering:auto;text-rendering:auto;enable-background:accumulate"/></g></g></g></svg>