<?xml version="1.0" ?><!DOCTYPE svg  PUBLIC '-//W3C//DTD SVG 1.1//EN'  'http://www.w3.org/Graphics/SVG/1.1/DTD/svg11.dtd'><svg height="512px" style="enable-background:new 0 0 512 512;" version="1.1" viewBox="0 0 512 512" width="512px" xml:space="preserve" xmlns="http://www.w3.org/2000/svg" xmlns:xlink="http://www.w3.org/1999/xlink"><g id="_x31_08-analytics_x2C__google_analytics_x2C__google"><g><g><g><path d="M330.564,166.28H181.438c-8.232,0-14.912,6.699-14.912,14.956v299.06      c0,8.251,6.68,14.954,14.912,14.954h149.127c8.23,0,14.91-6.703,14.91-14.954v-299.06      C345.475,172.979,338.795,166.28,330.564,166.28L330.564,166.28z M330.564,166.28" style="fill:#FFC107;"/><path d="M181.438,315.813H32.313c-8.236,0-14.916,6.698-14.916,14.953v149.53      c0,8.251,6.68,14.954,14.916,14.954h149.125c8.234,0,14.914-6.703,14.914-14.954v-149.53      C196.352,322.511,189.672,315.813,181.438,315.813L181.438,315.813z M181.438,315.813" style="fill:#FFC107;"/><path d="M479.689,16.75H330.564c-8.236,0-14.916,6.698-14.916,14.958v448.588      c0,8.251,6.68,14.954,14.916,14.954h149.125c8.234,0,14.914-6.703,14.914-14.954V31.708      C494.604,23.448,487.924,16.75,479.689,16.75L479.689,16.75z M479.689,16.75" style="fill:#FFA000;"/></g></g></g></g><g id="Layer_1"/></svg>