<?xml version="1.0" ?><!DOCTYPE svg  PUBLIC '-//W3C//DTD SVG 1.1//EN'  'http://www.w3.org/Graphics/SVG/1.1/DTD/svg11.dtd'><svg height="512px" style="enable-background:new 0 0 512 512;" version="1.1" viewBox="0 0 512 512" width="512px" xml:space="preserve" xmlns="http://www.w3.org/2000/svg" xmlns:xlink="http://www.w3.org/1999/xlink"><g id="_x31_11-adsense_x2C__ads"><g><g><g><g><path d="M481.367,262.908c-2.715-4.308-7.488-6.908-12.559-6.908H289.854       c-5.779,0-11.064,3.352-13.506,8.643l-97.532,209.339c-2.146,4.637-1.814,10.052,0.924,14.359       c2.747,4.304,7.487,6.909,12.584,6.909h178.959c5.787,0,11.064-3.352,13.508-8.616l97.531-209.344       C484.471,272.654,484.107,267.214,481.367,262.908L481.367,262.908z M481.367,262.908" style="fill:#2299F8;"/><path d="M413.693,23.659c-2.744-4.308-7.486-6.908-12.588-6.908H251.979       c-5.785,0-11.063,3.35-13.508,8.643L29.693,473.981c-2.152,4.637-1.819,10.052,0.923,14.359       c2.742,4.304,7.486,6.909,12.586,6.909h149.123c5.785,0,11.068-3.352,13.516-8.616L414.617,38.044       C416.764,33.409,416.436,27.966,413.693,23.659L413.693,23.659z M413.693,23.659" style="fill:#FFC107;"/></g></g></g></g></g><g id="Layer_1"/></svg>