<svg id="Capa_1" enable-background="new 0 0 512 512" height="512" viewBox="0 0 512 512" width="512" xmlns="http://www.w3.org/2000/svg"><g><path d="m444.5 15.519h-188.5l-188.5 150.889h377z" fill="#0f9d58"/><path d="m67.5 15.519h188.5v150.89h-188.5z" fill="#31aa52"/><path d="m270.015 206.578h286.322v144.567h-286.322z" fill="#eb4132" transform="matrix(.195 -.981 .981 .195 59.066 629.696)"/><path d="m384.468 76.078-128.468 25.554-200.142 331.742 384.469-76.475z" fill="#f8a808"/><path d="m0 152.553 55.858 280.821 200.142-39.81v-291.932z" fill="#fbbd00"/><path d="m459.5 201.481h-203.5l-60 147.5 60 147.5h203.5z" fill="#4175df"/><path d="m52.5 201.481h203.5v295h-203.5z" fill="#4086f4"/><g fill="#e3e7ea"><path d="m317.5 273.981h82v30h-82z"/><path d="m317.5 333.981h82v30h-82z"/><path d="m317.5 393.981h82v30h-82z"/></g><path d="m256 333.981h-56v30h55.503c-6.616 24.453-28.986 42.5-55.503 42.5-31.706 0-57.5-25.794-57.5-57.5s25.794-57.5 57.5-57.5c13.558 0 26.479 4.718 36.8 13.335l19.2-23.042c-15.707-13.114-35.37-20.293-56-20.293-48.248 0-87.5 39.252-87.5 87.5s39.252 87.5 87.5 87.5c21.284 0 40.815-7.642 56-20.322l11.5-52.178z" fill="#fff"/><path d="m256 333.981v82.178c19.238-16.064 31.5-40.214 31.5-67.178v-15z" fill="#e3e7ea"/></g></svg>