<svg id="Capa_1" enable-background="new 0 0 512 512" height="144" viewBox="0 0 512 512" width="144" xmlns="http://www.w3.org/2000/svg"><g><path d="m158 384h226v-64l-128-64z" fill="#4165cb"/><path d="m512 256h-128l-64-30-64 30 128 128z" fill="#4086f4"/><path d="m128 158v226h64l64-128z" fill="#0f9d58"/><path d="m256 512v-256l-128 128z" fill="#90c64f"/><path d="m354 128h-226v64l128 64z" fill="#f8a808"/><path d="m0 256h256l-128-128z" fill="#fbbd00"/><path d="m384 256v-128h-64l-64 128z" fill="#b3185e"/><path d="m256 0v256l128-128z" fill="#eb4132"/><path d="m280.168 230.662-24.168-84.555-20 109.893 20 109.893 24.168-86.895 85.725-22.997z" fill="#e3e7ea"/><path d="m231.832 230.662-85.725 25.339 85.725 22.997 24.168 86.895v-219.786z" fill="#fff"/></g></svg>