<?xml version="1.0" encoding="utf-8"?>
<!-- Generator: Adobe Illustrator 13.0.0, SVG Export Plug-In . SVG Version: 6.00 Build 14948)  -->
<!DOCTYPE svg PUBLIC "-//W3C//DTD SVG 1.1//EN" "http://www.w3.org/Graphics/SVG/1.1/DTD/svg11.dtd">
<svg version="1.1" xmlns="http://www.w3.org/2000/svg" xmlns:xlink="http://www.w3.org/1999/xlink" x="0px" y="0px" width="300px"
	 height="115px" viewBox="0 0 300 115" enable-background="new 0 0 300 115" xml:space="preserve">
<g id="Layer_1">
	<g>
		<g>
			<g>
				<path fill="#005CA6" d="M30.917,104.354H9.631l9.76-58.017h19.757l-1.529,9.001c1.828-2.9,3.504-4.805,5.352-6.235
					c3.94-3.051,8.408-4.461,13.112-4.461c7.41,0,11.975,3.654,14.117,10.604c4.231-7.291,10.309-10.604,18.185-10.604
					c10.226,0,15.837,6.112,16.051,16.048c0.042,1.883-0.153,3.895-0.469,5.884l-6.375,37.78H75.72l5.787-34.406
					c0.336-1.986,0.435-3.064,0.352-4.239c-0.228-3.28-1.752-4.899-4.694-4.899c-2.235,0-4.293,1.024-5.675,3.293
					c-1.039,1.712-1.205,2.684-1.908,6.947l-5.617,33.305H42.671l5.812-34.406c0.334-1.986,0.383-3.064,0.302-4.239
					c-0.231-3.28-1.901-4.899-4.842-4.899c-2.236,0-4.124,1.024-5.503,3.293c-1.041,1.712-1.206,2.684-1.908,6.947L30.917,104.354z"
					/>
				<path fill="#005CA6" d="M190.292,46.337l-1.516,9.001c1.435-2.597,3.314-4.956,5.682-6.672
					c3.695-2.684,8.351-4.024,13.291-4.024c9.762,0,15.693,6.243,16.069,14.906c0.081,1.881,0.051,4.219-0.483,7.277l-6.293,37.528
					h-22.019l5.698-33.882c0.401-2.411,0.586-3.653,0.586-4.595c0-3.062-1.769-5.097-5.178-5.097c-4.589,0-7.426,2.989-8.478,9.304
					l-5.775,34.27h-21.578l9.759-58.017H190.292z"/>
				<path fill="#005CA6" d="M145.806,63.462c-1.511-3.583-3.948-6.116-9.485-6.355c-4.771-0.203-7.979,1.193-7.979,3.649
					c0,3.084,2.434,3.763,10.195,5.319c6.492,1.304,10.926,2.763,14.523,4.915c6.081,3.638,8.453,8.934,8.085,15.485
					c-0.814,14.541-15.88,20.307-29.637,20.307c-14.126,0-24.542-4.62-29.033-17.274l17.624-3.9
					c2.151,4.892,5.596,7.234,11.65,7.383c4.852,0.12,8.336-1.341,8.336-3.911c0-2.979-3.023-3.717-10.812-5.581
					c-11.146-2.662-21.998-6.885-21.77-18.706c0.313-16.161,15.904-21.364,30.289-20.885c10.604,0.354,21.139,4.795,25.031,15.786
					L145.806,63.462z"/>
			</g>
			<path fill="#005CA6" d="M227.754,98.668h0.686c0.604,0,0.79,0.208,0.79,0.479c0,0.562-0.54,0.644-0.873,0.644h-0.603V98.668z
				 M227.754,100.725h0.728l0.728,1.662h1.287l-0.851-1.995c0.229-0.103,0.851-0.353,0.851-1.225c0-1.37-1.475-1.37-1.744-1.37
				h-2.221v4.59h1.223V100.725z M224.018,100.102c0,2.472,1.91,4.403,4.401,4.403c2.492,0,4.403-1.932,4.403-4.403
				c0-2.533-1.952-4.424-4.403-4.424C225.948,95.678,224.018,97.568,224.018,100.102z M225.034,100.102
				c0-1.849,1.6-3.406,3.385-3.406c1.808,0,3.386,1.558,3.386,3.406c0,1.806-1.578,3.385-3.386,3.385
				C226.613,103.486,225.034,101.907,225.034,100.102z"/>
		</g>
		<g>
			<g>
				
					<linearGradient id="SVGID_1_" gradientUnits="userSpaceOnUse" x1="236.5762" y1="169.8906" x2="252.4729" y2="141.1055" gradientTransform="matrix(1 0 0 1 -21 -121.5)">
					<stop  offset="0" style="stop-color:#FFFFFF"/>
					<stop  offset="0.0056" style="stop-color:#94CBEE"/>
					<stop  offset="0.2111" style="stop-color:#76B7E5"/>
					<stop  offset="0.6556" style="stop-color:#008ECF"/>
					<stop  offset="0.8539" style="stop-color:#007FC5"/>
				</linearGradient>
				<path fill="url(#SVGID_1_)" d="M246.235,35.751c-0.233-1.233-0.429-2.459-0.587-3.661c-8.091-7.538-19.813-13.804-28.996-16.517
					c-2.645-0.78-5.909-1.285-7.639,0.642c-1.397,1.557-0.975,4.494,0.6,8.081c5.427,12.372,15.466,25.525,25.344,33.211
					c0-0.002,0-0.003,0-0.003C232.79,47.249,236.499,38.274,246.235,35.751z"/>
				
					<linearGradient id="SVGID_2_" gradientUnits="userSpaceOnUse" x1="254.3887" y1="160.9219" x2="274.7715" y2="181.3047" gradientTransform="matrix(1 0 0 1 -21 -121.5)">
					<stop  offset="0" style="stop-color:#007FC5"/>
					<stop  offset="0.0873" style="stop-color:#0088B2"/>
					<stop  offset="0.2517" style="stop-color:#00968D"/>
					<stop  offset="0.3859" style="stop-color:#009F6C"/>
					<stop  offset="0.4832" style="stop-color:#00A555"/>
					<stop  offset="0.5337" style="stop-color:#00A94F"/>
				</linearGradient>
				<path fill="url(#SVGID_2_)" d="M253.156,55.715c-3.012-5.187-5.569-12.761-6.921-19.964
					c-9.736,2.523-13.445,11.498-11.278,21.753c0,0,0,0.001,0,0.003c0.003,0.006,0.003,0.003,0.002,0
					c1.292,1.006,2.733,1.988,3.864,2.576c5.238,2.723,8.701,2.186,11.688,0.499c1.192-0.676,2.703-2.399,3.468-3.502
					C253.696,56.629,253.422,56.174,253.156,55.715z"/>
				
					<linearGradient id="SVGID_3_" gradientUnits="userSpaceOnUse" x1="280.2539" y1="201.6445" x2="261.9498" y2="173.4587" gradientTransform="matrix(1 0 0 1 -21 -121.5)">
					<stop  offset="0.0955" style="stop-color:#00A94F"/>
					<stop  offset="0.2436" style="stop-color:#00B156"/>
					<stop  offset="0.4855" style="stop-color:#61BD65"/>
					<stop  offset="0.7009" style="stop-color:#86C772"/>
					<stop  offset="0.8798" style="stop-color:#9ACE7B"/>
					<stop  offset="1" style="stop-color:#A1D07E"/>
				</linearGradient>
				<path fill="url(#SVGID_3_)" d="M250.511,60.582c-2.986,1.687-6.449,2.224-11.688-0.499c-1.131-0.588-2.572-1.57-3.864-2.576
					c0,0.003,0.001,0.005,0,0.002c3.996,10.235,10.033,17.533,18.036,21.864c1.431,0.773,2.768,0.978,4.177,0.305
					c0.942-0.449,1.471-1.501,1.731-2.117c1.263-2.99,1.864-6.584,2.155-11.471c-2.702-2.763-5.078-5.797-7.08-9.01
					C253.214,58.183,251.703,59.906,250.511,60.582z"/>
				
					<linearGradient id="SVGID_4_" gradientUnits="userSpaceOnUse" x1="299.1016" y1="198.2129" x2="295.4453" y2="165.6161" gradientTransform="matrix(1 0 0 1 -21 -121.5)">
					<stop  offset="0" style="stop-color:#F4A656"/>
					<stop  offset="0.4719" style="stop-color:#FCCA25"/>
					<stop  offset="0.4944" style="stop-color:#FCCA25"/>
				</linearGradient>
				<path fill="url(#SVGID_4_)" d="M290.086,43.759c-0.814,2.26-1.568,3.901-3.148,6.544c-2.378,3.978-6.64,6.347-11.544,6.886
					c-4.461,0.489-10.494-0.339-15.355-2.243c0.746,3.589,1.105,7.321,1.021,11.145c3.464,3.398,7.521,6.388,12.081,8.662
					c0.794,0.396,1.795,0.669,2.665,0.669c1.351,0,2.628-0.512,3.769-1.424C287.681,67.517,292.757,55.912,290.086,43.759z"/>
				
					<linearGradient id="SVGID_5_" gradientUnits="userSpaceOnUse" x1="273.0928" y1="165.3398" x2="311.6514" y2="165.3398" gradientTransform="matrix(1 0 0 1 -21.5659 -121.0361)">
					<stop  offset="0.2921" style="stop-color:#F4A656"/>
					<stop  offset="1" style="stop-color:#E95A2F"/>
				</linearGradient>
				<path fill="url(#SVGID_5_)" d="M251.527,33.93c3.61,6.164,6.591,13.283,8.02,18.891c0.179,0.702,0.344,1.411,0.491,2.125
					c4.861,1.904,10.895,2.732,15.355,2.243c4.904-0.539,9.166-2.908,11.544-6.886c1.58-2.643,2.334-4.284,3.148-6.544
					C282.312,29.362,262.418,29.475,251.527,33.93z"/>
				
					<linearGradient id="SVGID_6_" gradientUnits="userSpaceOnUse" x1="271.2686" y1="143.9473" x2="315.6193" y2="143.9473" gradientTransform="matrix(1 0 0 1 -21.5659 -121.0361)">
					<stop  offset="0.0169" style="stop-color:#F4A656"/>
					<stop  offset="0.5393" style="stop-color:#E95A2F"/>
				</linearGradient>
				<path fill="url(#SVGID_6_)" d="M291.098,7.777c-0.778-1.644-2.112-3.527-3.626-4.447c-2.935-1.781-6.637-1.628-10.271,0.106
					c-11.61,5.538-23.772,15.465-27.497,27.548c0.621,0.949,1.23,1.934,1.824,2.945c10.891-4.455,30.784-4.568,38.559,9.829
					C293.861,33.279,296.553,19.308,291.098,7.777z"/>
				
					<linearGradient id="SVGID_7_" gradientUnits="userSpaceOnUse" x1="273.3965" y1="328.332" x2="262.5037" y2="332.733" gradientTransform="matrix(1 0 0 1 -14.3418 -282.9668)">
					<stop  offset="0.0449" style="stop-color:#3E5BA6"/>
					<stop  offset="0.4719" style="stop-color:#6D7CBC"/>
					<stop  offset="0.532" style="stop-color:#6373B6"/>
					<stop  offset="0.6585" style="stop-color:#4F66AD"/>
					<stop  offset="0.7748" style="stop-color:#435EA7"/>
					<stop  offset="0.8708" style="stop-color:#3E5BA6"/>
					<stop  offset="1" style="stop-color:#3E5BA6"/>
				</linearGradient>
				<path fill-rule="evenodd" clip-rule="evenodd" fill="url(#SVGID_7_)" d="M245.589,31.621c-0.155-1.278,0.161-2.434,1.006-2.757
					c0.802-0.309,1.811,0.206,2.495,1.202c4.696,6.841,8.719,15.925,10.457,22.754c1.077,4.232,1.612,8.684,1.512,13.27
					c-3.081-3.152-5.74-6.655-7.902-10.375C249.562,49.521,246.611,39.924,245.589,31.621z"/>
			</g>
			<path fill="#1B5BA1" d="M285.125,77.903h0.689c0.6,0,0.787,0.209,0.787,0.485c0,0.568-0.538,0.655-0.877,0.655h-0.6V77.903z
				 M285.125,79.989h0.728l0.725,1.685h1.285l-0.845-2.02c0.231-0.1,0.845-0.363,0.845-1.247c0-1.386-1.466-1.386-1.739-1.386
				h-2.219v4.652h1.221V79.989z M281.393,79.358c0,2.497,1.909,4.463,4.401,4.463c2.485,0,4.394-1.966,4.394-4.463
				c0-2.571-1.951-4.487-4.394-4.487C283.318,74.871,281.393,76.787,281.393,79.358z M282.409,79.358c0-1.877,1.6-3.446,3.385-3.446
				c1.808,0,3.377,1.569,3.377,3.446c0,1.837-1.569,3.431-3.377,3.431C283.984,82.789,282.409,81.195,282.409,79.358z"/>
		</g>
	</g>
</g>
<g id="Layer_2">
</g>
</svg>
